G04 #@! TF.FileFunction,Soldermask,Bot*
%FSLAX46Y46*%
G04 Gerber Fmt 4.6, Leading zero omitted, Abs format (unit mm)*
G04 Created by KiCad (PCBNEW 4.0.4-stable) date 11/14/16 21:20:41*
%MOMM*%
%LPD*%
G01*
G04 APERTURE LIST*
%ADD10C,0.100000*%
%ADD11R,2.100000X1.600000*%
%ADD12O,2.100000X1.600000*%
%ADD13R,2.432000X2.127200*%
%ADD14O,2.432000X2.127200*%
%ADD15R,2.432000X2.432000*%
%ADD16O,2.432000X2.432000*%
%ADD17R,1.600000X2.100000*%
%ADD18O,1.600000X2.100000*%
%ADD19C,6.800000*%
%ADD20C,1.000000*%
%ADD21R,2.127200X2.432000*%
%ADD22O,2.127200X2.432000*%
G04 APERTURE END LIST*
D10*
D11*
X48006000Y-39656000D03*
D12*
X48006000Y-41656000D03*
D11*
X48006000Y-48070000D03*
D12*
X48006000Y-50070000D03*
X48006000Y-52070000D03*
D13*
X91000000Y-52500000D03*
D14*
X91000000Y-49960000D03*
X91000000Y-47420000D03*
D15*
X53594000Y-52324000D03*
D16*
X53594000Y-49784000D03*
D17*
X59250000Y-15500000D03*
D18*
X61250000Y-15500000D03*
X63250000Y-15500000D03*
D17*
X75500000Y-15500000D03*
D18*
X77500000Y-15500000D03*
X79500000Y-15500000D03*
D19*
X88000000Y-58000000D03*
D20*
X90400000Y-58000000D03*
X89697056Y-59697056D03*
X88000000Y-60400000D03*
X86302944Y-59697056D03*
X85600000Y-58000000D03*
X86302944Y-56302944D03*
X88000000Y-55600000D03*
X89697056Y-56302944D03*
D19*
X49000000Y-58000000D03*
D20*
X51400000Y-58000000D03*
X50697056Y-59697056D03*
X49000000Y-60400000D03*
X47302944Y-59697056D03*
X46600000Y-58000000D03*
X47302944Y-56302944D03*
X49000000Y-55600000D03*
X50697056Y-56302944D03*
D19*
X88000000Y-18000000D03*
D20*
X90400000Y-18000000D03*
X89697056Y-19697056D03*
X88000000Y-20400000D03*
X86302944Y-19697056D03*
X85600000Y-18000000D03*
X86302944Y-16302944D03*
X88000000Y-15600000D03*
X89697056Y-16302944D03*
D19*
X49000000Y-18000000D03*
D20*
X51400000Y-18000000D03*
X50697056Y-19697056D03*
X49000000Y-20400000D03*
X47302944Y-19697056D03*
X46600000Y-18000000D03*
X47302944Y-16302944D03*
X49000000Y-15600000D03*
X50697056Y-16302944D03*
D21*
X54610000Y-60960000D03*
D22*
X57150000Y-60960000D03*
X59690000Y-60960000D03*
X62230000Y-60960000D03*
X64770000Y-60960000D03*
X67310000Y-60960000D03*
X69850000Y-60960000D03*
X72390000Y-60960000D03*
X74930000Y-60960000D03*
X77470000Y-60960000D03*
X80010000Y-60960000D03*
X82550000Y-60960000D03*
M02*
