G04 #@! TF.FileFunction,Legend,Top*
%FSLAX46Y46*%
G04 Gerber Fmt 4.6, Leading zero omitted, Abs format (unit mm)*
G04 Created by KiCad (PCBNEW 4.0.4-stable) date 11/14/16 21:20:41*
%MOMM*%
%LPD*%
G01*
G04 APERTURE LIST*
%ADD10C,0.100000*%
%ADD11C,0.150000*%
%ADD12C,0.300000*%
G04 APERTURE END LIST*
D10*
D11*
X50474571Y-41275048D02*
X50474571Y-42036953D01*
X50165048Y-39441429D02*
X50926953Y-39441429D01*
X50546001Y-39822381D02*
X50546001Y-39060476D01*
X53675000Y-58414285D02*
X53598810Y-58528571D01*
X53598810Y-58700000D01*
X53675000Y-58871428D01*
X53827381Y-58985714D01*
X53979762Y-59042857D01*
X54284524Y-59100000D01*
X54513095Y-59100000D01*
X54817857Y-59042857D01*
X54970238Y-58985714D01*
X55122619Y-58871428D01*
X55198810Y-58700000D01*
X55198810Y-58585714D01*
X55122619Y-58414285D01*
X55046429Y-58357142D01*
X54513095Y-58357142D01*
X54513095Y-58585714D01*
X55198810Y-57842857D02*
X53598810Y-57842857D01*
X55198810Y-57157142D01*
X53598810Y-57157142D01*
X55198810Y-56585714D02*
X53598810Y-56585714D01*
X53598810Y-56299999D01*
X53675000Y-56128571D01*
X53827381Y-56014285D01*
X53979762Y-55957142D01*
X54284524Y-55899999D01*
X54513095Y-55899999D01*
X54817857Y-55957142D01*
X54970238Y-56014285D01*
X55122619Y-56128571D01*
X55198810Y-56299999D01*
X55198810Y-56585714D01*
X57748810Y-59071429D02*
X56148810Y-59071429D01*
X57291667Y-58671429D01*
X56148810Y-58271429D01*
X57748810Y-58271429D01*
X57748810Y-57700000D02*
X56148810Y-57700000D01*
X56148810Y-57242857D01*
X56225000Y-57128571D01*
X56301190Y-57071428D01*
X56453571Y-57014285D01*
X56682143Y-57014285D01*
X56834524Y-57071428D01*
X56910714Y-57128571D01*
X56986905Y-57242857D01*
X56986905Y-57700000D01*
X56682143Y-55985714D02*
X57748810Y-55985714D01*
X56072619Y-56271428D02*
X57215476Y-56557143D01*
X57215476Y-55814285D01*
X60298810Y-59071429D02*
X58698810Y-59071429D01*
X59841667Y-58671429D01*
X58698810Y-58271429D01*
X60298810Y-58271429D01*
X60298810Y-57700000D02*
X58698810Y-57700000D01*
X58698810Y-57242857D01*
X58775000Y-57128571D01*
X58851190Y-57071428D01*
X59003571Y-57014285D01*
X59232143Y-57014285D01*
X59384524Y-57071428D01*
X59460714Y-57128571D01*
X59536905Y-57242857D01*
X59536905Y-57700000D01*
X58698810Y-55928571D02*
X58698810Y-56500000D01*
X59460714Y-56557143D01*
X59384524Y-56500000D01*
X59308333Y-56385714D01*
X59308333Y-56100000D01*
X59384524Y-55985714D01*
X59460714Y-55928571D01*
X59613095Y-55871428D01*
X59994048Y-55871428D01*
X60146429Y-55928571D01*
X60222619Y-55985714D01*
X60298810Y-56100000D01*
X60298810Y-56385714D01*
X60222619Y-56500000D01*
X60146429Y-56557143D01*
X62848810Y-59071429D02*
X61248810Y-59071429D01*
X62391667Y-58671429D01*
X61248810Y-58271429D01*
X62848810Y-58271429D01*
X62848810Y-57700000D02*
X61248810Y-57700000D01*
X61248810Y-57242857D01*
X61325000Y-57128571D01*
X61401190Y-57071428D01*
X61553571Y-57014285D01*
X61782143Y-57014285D01*
X61934524Y-57071428D01*
X62010714Y-57128571D01*
X62086905Y-57242857D01*
X62086905Y-57700000D01*
X62848810Y-55871428D02*
X62848810Y-56557143D01*
X62848810Y-56214285D02*
X61248810Y-56214285D01*
X61477381Y-56328571D01*
X61629762Y-56442857D01*
X61705952Y-56557143D01*
X65398810Y-59071429D02*
X63798810Y-59071429D01*
X64941667Y-58671429D01*
X63798810Y-58271429D01*
X65398810Y-58271429D01*
X65398810Y-57700000D02*
X63798810Y-57700000D01*
X63798810Y-57242857D01*
X63875000Y-57128571D01*
X63951190Y-57071428D01*
X64103571Y-57014285D01*
X64332143Y-57014285D01*
X64484524Y-57071428D01*
X64560714Y-57128571D01*
X64636905Y-57242857D01*
X64636905Y-57700000D01*
X63798810Y-56271428D02*
X63798810Y-56157143D01*
X63875000Y-56042857D01*
X63951190Y-55985714D01*
X64103571Y-55928571D01*
X64408333Y-55871428D01*
X64789286Y-55871428D01*
X65094048Y-55928571D01*
X65246429Y-55985714D01*
X65322619Y-56042857D01*
X65398810Y-56157143D01*
X65398810Y-56271428D01*
X65322619Y-56385714D01*
X65246429Y-56442857D01*
X65094048Y-56500000D01*
X64789286Y-56557143D01*
X64408333Y-56557143D01*
X64103571Y-56500000D01*
X63951190Y-56442857D01*
X63875000Y-56385714D01*
X63798810Y-56271428D01*
X66425000Y-58414285D02*
X66348810Y-58528571D01*
X66348810Y-58700000D01*
X66425000Y-58871428D01*
X66577381Y-58985714D01*
X66729762Y-59042857D01*
X67034524Y-59100000D01*
X67263095Y-59100000D01*
X67567857Y-59042857D01*
X67720238Y-58985714D01*
X67872619Y-58871428D01*
X67948810Y-58700000D01*
X67948810Y-58585714D01*
X67872619Y-58414285D01*
X67796429Y-58357142D01*
X67263095Y-58357142D01*
X67263095Y-58585714D01*
X67948810Y-57842857D02*
X66348810Y-57842857D01*
X67948810Y-57157142D01*
X66348810Y-57157142D01*
X67948810Y-56585714D02*
X66348810Y-56585714D01*
X66348810Y-56299999D01*
X66425000Y-56128571D01*
X66577381Y-56014285D01*
X66729762Y-55957142D01*
X67034524Y-55899999D01*
X67263095Y-55899999D01*
X67567857Y-55957142D01*
X67720238Y-56014285D01*
X67872619Y-56128571D01*
X67948810Y-56299999D01*
X67948810Y-56585714D01*
X70422619Y-58957143D02*
X70498810Y-58785714D01*
X70498810Y-58500000D01*
X70422619Y-58385714D01*
X70346429Y-58328571D01*
X70194048Y-58271428D01*
X70041667Y-58271428D01*
X69889286Y-58328571D01*
X69813095Y-58385714D01*
X69736905Y-58500000D01*
X69660714Y-58728571D01*
X69584524Y-58842857D01*
X69508333Y-58900000D01*
X69355952Y-58957143D01*
X69203571Y-58957143D01*
X69051190Y-58900000D01*
X68975000Y-58842857D01*
X68898810Y-58728571D01*
X68898810Y-58442857D01*
X68975000Y-58271428D01*
X70498810Y-57757143D02*
X68898810Y-57757143D01*
X68898810Y-57471428D01*
X68975000Y-57300000D01*
X69127381Y-57185714D01*
X69279762Y-57128571D01*
X69584524Y-57071428D01*
X69813095Y-57071428D01*
X70117857Y-57128571D01*
X70270238Y-57185714D01*
X70422619Y-57300000D01*
X70498810Y-57471428D01*
X70498810Y-57757143D01*
X70041667Y-56614286D02*
X70041667Y-56042857D01*
X70498810Y-56728571D02*
X68898810Y-56328571D01*
X70498810Y-55928571D01*
X72972619Y-58928572D02*
X73048810Y-58757143D01*
X73048810Y-58471429D01*
X72972619Y-58357143D01*
X72896429Y-58300000D01*
X72744048Y-58242857D01*
X72591667Y-58242857D01*
X72439286Y-58300000D01*
X72363095Y-58357143D01*
X72286905Y-58471429D01*
X72210714Y-58700000D01*
X72134524Y-58814286D01*
X72058333Y-58871429D01*
X71905952Y-58928572D01*
X71753571Y-58928572D01*
X71601190Y-58871429D01*
X71525000Y-58814286D01*
X71448810Y-58700000D01*
X71448810Y-58414286D01*
X71525000Y-58242857D01*
X72896429Y-57042857D02*
X72972619Y-57100000D01*
X73048810Y-57271429D01*
X73048810Y-57385715D01*
X72972619Y-57557143D01*
X72820238Y-57671429D01*
X72667857Y-57728572D01*
X72363095Y-57785715D01*
X72134524Y-57785715D01*
X71829762Y-57728572D01*
X71677381Y-57671429D01*
X71525000Y-57557143D01*
X71448810Y-57385715D01*
X71448810Y-57271429D01*
X71525000Y-57100000D01*
X71601190Y-57042857D01*
X73048810Y-55957143D02*
X73048810Y-56528572D01*
X71448810Y-56528572D01*
X75598810Y-59071429D02*
X73998810Y-59071429D01*
X75141667Y-58671429D01*
X73998810Y-58271429D01*
X75598810Y-58271429D01*
X75598810Y-57700000D02*
X73998810Y-57700000D01*
X73998810Y-57242857D01*
X74075000Y-57128571D01*
X74151190Y-57071428D01*
X74303571Y-57014285D01*
X74532143Y-57014285D01*
X74684524Y-57071428D01*
X74760714Y-57128571D01*
X74836905Y-57242857D01*
X74836905Y-57700000D01*
X75598810Y-56442857D02*
X75598810Y-56214285D01*
X75522619Y-56100000D01*
X75446429Y-56042857D01*
X75217857Y-55928571D01*
X74913095Y-55871428D01*
X74303571Y-55871428D01*
X74151190Y-55928571D01*
X74075000Y-55985714D01*
X73998810Y-56100000D01*
X73998810Y-56328571D01*
X74075000Y-56442857D01*
X74151190Y-56500000D01*
X74303571Y-56557143D01*
X74684524Y-56557143D01*
X74836905Y-56500000D01*
X74913095Y-56442857D01*
X74989286Y-56328571D01*
X74989286Y-56100000D01*
X74913095Y-55985714D01*
X74836905Y-55928571D01*
X74684524Y-55871428D01*
X78148810Y-59071429D02*
X76548810Y-59071429D01*
X77691667Y-58671429D01*
X76548810Y-58271429D01*
X78148810Y-58271429D01*
X78148810Y-57700000D02*
X76548810Y-57700000D01*
X76548810Y-57242857D01*
X76625000Y-57128571D01*
X76701190Y-57071428D01*
X76853571Y-57014285D01*
X77082143Y-57014285D01*
X77234524Y-57071428D01*
X77310714Y-57128571D01*
X77386905Y-57242857D01*
X77386905Y-57700000D01*
X77234524Y-56328571D02*
X77158333Y-56442857D01*
X77082143Y-56500000D01*
X76929762Y-56557143D01*
X76853571Y-56557143D01*
X76701190Y-56500000D01*
X76625000Y-56442857D01*
X76548810Y-56328571D01*
X76548810Y-56100000D01*
X76625000Y-55985714D01*
X76701190Y-55928571D01*
X76853571Y-55871428D01*
X76929762Y-55871428D01*
X77082143Y-55928571D01*
X77158333Y-55985714D01*
X77234524Y-56100000D01*
X77234524Y-56328571D01*
X77310714Y-56442857D01*
X77386905Y-56500000D01*
X77539286Y-56557143D01*
X77844048Y-56557143D01*
X77996429Y-56500000D01*
X78072619Y-56442857D01*
X78148810Y-56328571D01*
X78148810Y-56100000D01*
X78072619Y-55985714D01*
X77996429Y-55928571D01*
X77844048Y-55871428D01*
X77539286Y-55871428D01*
X77386905Y-55928571D01*
X77310714Y-55985714D01*
X77234524Y-56100000D01*
X80698810Y-59071429D02*
X79098810Y-59071429D01*
X80241667Y-58671429D01*
X79098810Y-58271429D01*
X80698810Y-58271429D01*
X80698810Y-57700000D02*
X79098810Y-57700000D01*
X79098810Y-57242857D01*
X79175000Y-57128571D01*
X79251190Y-57071428D01*
X79403571Y-57014285D01*
X79632143Y-57014285D01*
X79784524Y-57071428D01*
X79860714Y-57128571D01*
X79936905Y-57242857D01*
X79936905Y-57700000D01*
X79098810Y-56614285D02*
X79098810Y-55871428D01*
X79708333Y-56271428D01*
X79708333Y-56100000D01*
X79784524Y-55985714D01*
X79860714Y-55928571D01*
X80013095Y-55871428D01*
X80394048Y-55871428D01*
X80546429Y-55928571D01*
X80622619Y-55985714D01*
X80698810Y-56100000D01*
X80698810Y-56442857D01*
X80622619Y-56557143D01*
X80546429Y-56614285D01*
X83248810Y-59071429D02*
X81648810Y-59071429D01*
X82791667Y-58671429D01*
X81648810Y-58271429D01*
X83248810Y-58271429D01*
X83248810Y-57700000D02*
X81648810Y-57700000D01*
X81648810Y-57242857D01*
X81725000Y-57128571D01*
X81801190Y-57071428D01*
X81953571Y-57014285D01*
X82182143Y-57014285D01*
X82334524Y-57071428D01*
X82410714Y-57128571D01*
X82486905Y-57242857D01*
X82486905Y-57700000D01*
X81801190Y-56557143D02*
X81725000Y-56500000D01*
X81648810Y-56385714D01*
X81648810Y-56100000D01*
X81725000Y-55985714D01*
X81801190Y-55928571D01*
X81953571Y-55871428D01*
X82105952Y-55871428D01*
X82334524Y-55928571D01*
X83248810Y-56614285D01*
X83248810Y-55871428D01*
D12*
X82428571Y-18214286D02*
X82428571Y-17928572D01*
X82500000Y-17785714D01*
X82642857Y-17642857D01*
X82928571Y-17571429D01*
X83428571Y-17571429D01*
X83714286Y-17642857D01*
X83857143Y-17785714D01*
X83928571Y-17928572D01*
X83928571Y-18214286D01*
X83857143Y-18357143D01*
X83714286Y-18500000D01*
X83428571Y-18571429D01*
X82928571Y-18571429D01*
X82642857Y-18500000D01*
X82500000Y-18357143D01*
X82428571Y-18214286D01*
X82428571Y-16928571D02*
X83642857Y-16928571D01*
X83785714Y-16857143D01*
X83857143Y-16785714D01*
X83928571Y-16642857D01*
X83928571Y-16357143D01*
X83857143Y-16214285D01*
X83785714Y-16142857D01*
X83642857Y-16071428D01*
X82428571Y-16071428D01*
X82428571Y-15571428D02*
X82428571Y-14714285D01*
X83928571Y-15142856D02*
X82428571Y-15142856D01*
X82428571Y-14357142D02*
X82428571Y-13428571D01*
X83000000Y-13928571D01*
X83000000Y-13714285D01*
X83071429Y-13571428D01*
X83142857Y-13499999D01*
X83285714Y-13428571D01*
X83642857Y-13428571D01*
X83785714Y-13499999D01*
X83857143Y-13571428D01*
X83928571Y-13714285D01*
X83928571Y-14142857D01*
X83857143Y-14285714D01*
X83785714Y-14357142D01*
X71178571Y-18214286D02*
X71178571Y-17928572D01*
X71250000Y-17785714D01*
X71392857Y-17642857D01*
X71678571Y-17571429D01*
X72178571Y-17571429D01*
X72464286Y-17642857D01*
X72607143Y-17785714D01*
X72678571Y-17928572D01*
X72678571Y-18214286D01*
X72607143Y-18357143D01*
X72464286Y-18500000D01*
X72178571Y-18571429D01*
X71678571Y-18571429D01*
X71392857Y-18500000D01*
X71250000Y-18357143D01*
X71178571Y-18214286D01*
X71178571Y-16928571D02*
X72392857Y-16928571D01*
X72535714Y-16857143D01*
X72607143Y-16785714D01*
X72678571Y-16642857D01*
X72678571Y-16357143D01*
X72607143Y-16214285D01*
X72535714Y-16142857D01*
X72392857Y-16071428D01*
X71178571Y-16071428D01*
X71178571Y-15571428D02*
X71178571Y-14714285D01*
X72678571Y-15142856D02*
X71178571Y-15142856D01*
X71321429Y-14285714D02*
X71250000Y-14214285D01*
X71178571Y-14071428D01*
X71178571Y-13714285D01*
X71250000Y-13571428D01*
X71321429Y-13499999D01*
X71464286Y-13428571D01*
X71607143Y-13428571D01*
X71821429Y-13499999D01*
X72678571Y-14357142D01*
X72678571Y-13428571D01*
X54928571Y-18214286D02*
X54928571Y-17928572D01*
X55000000Y-17785714D01*
X55142857Y-17642857D01*
X55428571Y-17571429D01*
X55928571Y-17571429D01*
X56214286Y-17642857D01*
X56357143Y-17785714D01*
X56428571Y-17928572D01*
X56428571Y-18214286D01*
X56357143Y-18357143D01*
X56214286Y-18500000D01*
X55928571Y-18571429D01*
X55428571Y-18571429D01*
X55142857Y-18500000D01*
X55000000Y-18357143D01*
X54928571Y-18214286D01*
X54928571Y-16928571D02*
X56142857Y-16928571D01*
X56285714Y-16857143D01*
X56357143Y-16785714D01*
X56428571Y-16642857D01*
X56428571Y-16357143D01*
X56357143Y-16214285D01*
X56285714Y-16142857D01*
X56142857Y-16071428D01*
X54928571Y-16071428D01*
X54928571Y-15571428D02*
X54928571Y-14714285D01*
X56428571Y-15142856D02*
X54928571Y-15142856D01*
X54928571Y-13928571D02*
X54928571Y-13785714D01*
X55000000Y-13642857D01*
X55071429Y-13571428D01*
X55214286Y-13499999D01*
X55500000Y-13428571D01*
X55857143Y-13428571D01*
X56142857Y-13499999D01*
X56285714Y-13571428D01*
X56357143Y-13642857D01*
X56428571Y-13785714D01*
X56428571Y-13928571D01*
X56357143Y-14071428D01*
X56285714Y-14142857D01*
X56142857Y-14214285D01*
X55857143Y-14285714D01*
X55500000Y-14285714D01*
X55214286Y-14214285D01*
X55071429Y-14142857D01*
X55000000Y-14071428D01*
X54928571Y-13928571D01*
X66178571Y-18214286D02*
X66178571Y-17928572D01*
X66250000Y-17785714D01*
X66392857Y-17642857D01*
X66678571Y-17571429D01*
X67178571Y-17571429D01*
X67464286Y-17642857D01*
X67607143Y-17785714D01*
X67678571Y-17928572D01*
X67678571Y-18214286D01*
X67607143Y-18357143D01*
X67464286Y-18500000D01*
X67178571Y-18571429D01*
X66678571Y-18571429D01*
X66392857Y-18500000D01*
X66250000Y-18357143D01*
X66178571Y-18214286D01*
X66178571Y-16928571D02*
X67392857Y-16928571D01*
X67535714Y-16857143D01*
X67607143Y-16785714D01*
X67678571Y-16642857D01*
X67678571Y-16357143D01*
X67607143Y-16214285D01*
X67535714Y-16142857D01*
X67392857Y-16071428D01*
X66178571Y-16071428D01*
X66178571Y-15571428D02*
X66178571Y-14714285D01*
X67678571Y-15142856D02*
X66178571Y-15142856D01*
X67678571Y-13428571D02*
X67678571Y-14285714D01*
X67678571Y-13857142D02*
X66178571Y-13857142D01*
X66392857Y-13999999D01*
X66535714Y-14142857D01*
X66607143Y-14285714D01*
D11*
X45109143Y-36774381D02*
X45109143Y-35774381D01*
X45490096Y-35774381D01*
X45585334Y-35822000D01*
X45632953Y-35869619D01*
X45680572Y-35964857D01*
X45680572Y-36107714D01*
X45632953Y-36202952D01*
X45585334Y-36250571D01*
X45490096Y-36298190D01*
X45109143Y-36298190D01*
X46061524Y-36726762D02*
X46204381Y-36774381D01*
X46442477Y-36774381D01*
X46537715Y-36726762D01*
X46585334Y-36679143D01*
X46632953Y-36583905D01*
X46632953Y-36488667D01*
X46585334Y-36393429D01*
X46537715Y-36345810D01*
X46442477Y-36298190D01*
X46252000Y-36250571D01*
X46156762Y-36202952D01*
X46109143Y-36155333D01*
X46061524Y-36060095D01*
X46061524Y-35964857D01*
X46109143Y-35869619D01*
X46156762Y-35822000D01*
X46252000Y-35774381D01*
X46490096Y-35774381D01*
X46632953Y-35822000D01*
X47061524Y-35774381D02*
X47061524Y-36583905D01*
X47109143Y-36679143D01*
X47156762Y-36726762D01*
X47252000Y-36774381D01*
X47442477Y-36774381D01*
X47537715Y-36726762D01*
X47585334Y-36679143D01*
X47632953Y-36583905D01*
X47632953Y-35774381D01*
X48632953Y-36774381D02*
X48061524Y-36774381D01*
X48347238Y-36774381D02*
X48347238Y-35774381D01*
X48252000Y-35917238D01*
X48156762Y-36012476D01*
X48061524Y-36060095D01*
X49013905Y-35869619D02*
X49061524Y-35822000D01*
X49156762Y-35774381D01*
X49394858Y-35774381D01*
X49490096Y-35822000D01*
X49537715Y-35869619D01*
X49585334Y-35964857D01*
X49585334Y-36060095D01*
X49537715Y-36202952D01*
X48966286Y-36774381D01*
X49585334Y-36774381D01*
X49871048Y-35774381D02*
X50204381Y-36774381D01*
X50537715Y-35774381D01*
X50601619Y-45514191D02*
X51601619Y-45514191D01*
X50601619Y-45990381D02*
X51601619Y-45990381D01*
X50601619Y-46561810D01*
X51601619Y-46561810D01*
X51601619Y-47228476D02*
X51601619Y-47323715D01*
X51554000Y-47418953D01*
X51506381Y-47466572D01*
X51411143Y-47514191D01*
X51220667Y-47561810D01*
X50982571Y-47561810D01*
X50792095Y-47514191D01*
X50696857Y-47466572D01*
X50649238Y-47418953D01*
X50601619Y-47323715D01*
X50601619Y-47228476D01*
X50649238Y-47133238D01*
X50696857Y-47085619D01*
X50792095Y-47038000D01*
X50982571Y-46990381D01*
X51220667Y-46990381D01*
X51411143Y-47038000D01*
X51506381Y-47085619D01*
X51554000Y-47133238D01*
X51601619Y-47228476D01*
X51554000Y-49276096D02*
X51601619Y-49180858D01*
X51601619Y-49038001D01*
X51554000Y-48895143D01*
X51458762Y-48799905D01*
X51363524Y-48752286D01*
X51173048Y-48704667D01*
X51030190Y-48704667D01*
X50839714Y-48752286D01*
X50744476Y-48799905D01*
X50649238Y-48895143D01*
X50601619Y-49038001D01*
X50601619Y-49133239D01*
X50649238Y-49276096D01*
X50696857Y-49323715D01*
X51030190Y-49323715D01*
X51030190Y-49133239D01*
X50601619Y-49752286D02*
X51601619Y-49752286D01*
X50601619Y-50323715D01*
X51601619Y-50323715D01*
X50601619Y-50799905D02*
X51601619Y-50799905D01*
X51601619Y-51038000D01*
X51554000Y-51180858D01*
X51458762Y-51276096D01*
X51363524Y-51323715D01*
X51173048Y-51371334D01*
X51030190Y-51371334D01*
X50839714Y-51323715D01*
X50744476Y-51276096D01*
X50649238Y-51180858D01*
X50601619Y-51038000D01*
X50601619Y-50799905D01*
X50601619Y-52561810D02*
X51601619Y-52561810D01*
X50601619Y-53038000D02*
X51601619Y-53038000D01*
X50601619Y-53609429D01*
X51601619Y-53609429D01*
X50601619Y-54609429D02*
X50601619Y-54038000D01*
X50601619Y-54323714D02*
X51601619Y-54323714D01*
X51458762Y-54228476D01*
X51363524Y-54133238D01*
X51315905Y-54038000D01*
D12*
X92178571Y-40785712D02*
X90678571Y-40785712D01*
X92107143Y-40785712D02*
X92178571Y-40928569D01*
X92178571Y-41214283D01*
X92107143Y-41357141D01*
X92035714Y-41428569D01*
X91892857Y-41499998D01*
X91464286Y-41499998D01*
X91321429Y-41428569D01*
X91250000Y-41357141D01*
X91178571Y-41214283D01*
X91178571Y-40928569D01*
X91250000Y-40785712D01*
X92178571Y-40071426D02*
X91178571Y-40071426D01*
X90678571Y-40071426D02*
X90750000Y-40142855D01*
X90821429Y-40071426D01*
X90750000Y-39999998D01*
X90678571Y-40071426D01*
X90821429Y-40071426D01*
X91178571Y-39499997D02*
X92178571Y-39142854D01*
X91178571Y-38785712D02*
X92178571Y-39142854D01*
X92535714Y-39285712D01*
X92607143Y-39357140D01*
X92678571Y-39499997D01*
X92178571Y-37571426D02*
X90678571Y-37571426D01*
X92107143Y-37571426D02*
X92178571Y-37714283D01*
X92178571Y-37999997D01*
X92107143Y-38142855D01*
X92035714Y-38214283D01*
X91892857Y-38285712D01*
X91464286Y-38285712D01*
X91321429Y-38214283D01*
X91250000Y-38142855D01*
X91178571Y-37999997D01*
X91178571Y-37714283D01*
X91250000Y-37571426D01*
X92107143Y-36928569D02*
X92178571Y-36785712D01*
X92178571Y-36499997D01*
X92107143Y-36357140D01*
X91964286Y-36285712D01*
X91892857Y-36285712D01*
X91750000Y-36357140D01*
X91678571Y-36499997D01*
X91678571Y-36714283D01*
X91607143Y-36857140D01*
X91464286Y-36928569D01*
X91392857Y-36928569D01*
X91250000Y-36857140D01*
X91178571Y-36714283D01*
X91178571Y-36499997D01*
X91250000Y-36357140D01*
X91178571Y-35642854D02*
X92678571Y-35642854D01*
X91250000Y-35642854D02*
X91178571Y-35499997D01*
X91178571Y-35214283D01*
X91250000Y-35071426D01*
X91321429Y-34999997D01*
X91464286Y-34928568D01*
X91892857Y-34928568D01*
X92035714Y-34999997D01*
X92107143Y-35071426D01*
X92178571Y-35214283D01*
X92178571Y-35499997D01*
X92107143Y-35642854D01*
X92178571Y-33499997D02*
X92178571Y-34357140D01*
X92178571Y-33928568D02*
X90678571Y-33928568D01*
X90892857Y-34071425D01*
X91035714Y-34214283D01*
X91107143Y-34357140D01*
X90678571Y-32999997D02*
X90678571Y-31999997D01*
X92178571Y-32642854D01*
X90678571Y-31142855D02*
X90678571Y-30999998D01*
X90750000Y-30857141D01*
X90821429Y-30785712D01*
X90964286Y-30714283D01*
X91250000Y-30642855D01*
X91607143Y-30642855D01*
X91892857Y-30714283D01*
X92035714Y-30785712D01*
X92107143Y-30857141D01*
X92178571Y-30999998D01*
X92178571Y-31142855D01*
X92107143Y-31285712D01*
X92035714Y-31357141D01*
X91892857Y-31428569D01*
X91607143Y-31499998D01*
X91250000Y-31499998D01*
X90964286Y-31428569D01*
X90821429Y-31357141D01*
X90750000Y-31285712D01*
X90678571Y-31142855D01*
X92178571Y-29214284D02*
X92178571Y-30071427D01*
X92178571Y-29642855D02*
X90678571Y-29642855D01*
X90892857Y-29785712D01*
X91035714Y-29928570D01*
X91107143Y-30071427D01*
X92178571Y-27428570D02*
X91178571Y-27428570D01*
X91464286Y-27428570D02*
X91321429Y-27357142D01*
X91250000Y-27285713D01*
X91178571Y-27142856D01*
X91178571Y-26999999D01*
X92107143Y-25928571D02*
X92178571Y-26071428D01*
X92178571Y-26357142D01*
X92107143Y-26499999D01*
X91964286Y-26571428D01*
X91392857Y-26571428D01*
X91250000Y-26499999D01*
X91178571Y-26357142D01*
X91178571Y-26071428D01*
X91250000Y-25928571D01*
X91392857Y-25857142D01*
X91535714Y-25857142D01*
X91678571Y-26571428D01*
X91178571Y-25357142D02*
X92178571Y-24999999D01*
X91178571Y-24642857D01*
X92178571Y-23285714D02*
X92178571Y-24142857D01*
X92178571Y-23714285D02*
X90678571Y-23714285D01*
X90892857Y-23857142D01*
X91035714Y-24000000D01*
X91107143Y-24142857D01*
D11*
X45206000Y-37706000D02*
X49706000Y-37706000D01*
X49706000Y-37706000D02*
X49706000Y-43606000D01*
X49706000Y-43606000D02*
X45206000Y-43606000D01*
X45206000Y-43606000D02*
X45206000Y-37706000D01*
X49706000Y-40156000D02*
X49206000Y-40156000D01*
X49206000Y-40156000D02*
X49206000Y-38206000D01*
X49206000Y-38206000D02*
X45706000Y-38206000D01*
X45706000Y-38206000D02*
X45706000Y-43106000D01*
X45706000Y-43106000D02*
X49206000Y-43106000D01*
X49206000Y-43106000D02*
X49206000Y-41156000D01*
X49206000Y-41156000D02*
X49706000Y-41156000D01*
X48506000Y-37706000D02*
X48506000Y-38206000D01*
X47206000Y-37706000D02*
X47206000Y-38206000D01*
X48506000Y-43106000D02*
X48506000Y-43606000D01*
X47206000Y-43106000D02*
X47206000Y-43606000D01*
X49706000Y-39356000D02*
X49906000Y-39356000D01*
X49906000Y-39356000D02*
X49906000Y-39056000D01*
X49906000Y-39056000D02*
X49706000Y-39056000D01*
X49806000Y-39356000D02*
X49806000Y-39056000D01*
X45706000Y-40556000D02*
X46206000Y-40556000D01*
X46206000Y-40556000D02*
X46206000Y-40756000D01*
X46206000Y-40756000D02*
X45706000Y-40756000D01*
X45706000Y-40656000D02*
X46206000Y-40656000D01*
X66875000Y-34375000D02*
X66875000Y-34825000D01*
X74125000Y-34375000D02*
X74125000Y-34900000D01*
X74125000Y-41625000D02*
X74125000Y-41100000D01*
X66875000Y-41625000D02*
X66875000Y-41100000D01*
X66875000Y-34375000D02*
X67400000Y-34375000D01*
X66875000Y-41625000D02*
X67400000Y-41625000D01*
X74125000Y-41625000D02*
X73600000Y-41625000D01*
X74125000Y-34375000D02*
X73600000Y-34375000D01*
X66875000Y-34825000D02*
X65500000Y-34825000D01*
X56250000Y-34650000D02*
X55250000Y-34650000D01*
X55250000Y-36350000D02*
X56250000Y-36350000D01*
X56250000Y-40650000D02*
X55250000Y-40650000D01*
X55250000Y-42350000D02*
X56250000Y-42350000D01*
X56250000Y-36650000D02*
X55250000Y-36650000D01*
X55250000Y-38350000D02*
X56250000Y-38350000D01*
X56250000Y-38650000D02*
X55250000Y-38650000D01*
X55250000Y-40350000D02*
X56250000Y-40350000D01*
X62000000Y-42350000D02*
X63000000Y-42350000D01*
X63000000Y-40650000D02*
X62000000Y-40650000D01*
X62000000Y-30350000D02*
X63000000Y-30350000D01*
X63000000Y-28650000D02*
X62000000Y-28650000D01*
X62000000Y-32350000D02*
X63000000Y-32350000D01*
X63000000Y-30650000D02*
X62000000Y-30650000D01*
X62000000Y-44850000D02*
X63000000Y-44850000D01*
X63000000Y-43150000D02*
X62000000Y-43150000D01*
X62000000Y-47100000D02*
X63000000Y-47100000D01*
X63000000Y-45400000D02*
X62000000Y-45400000D01*
X75000000Y-27900000D02*
X74000000Y-27900000D01*
X74000000Y-29600000D02*
X75000000Y-29600000D01*
X74000000Y-31600000D02*
X75000000Y-31600000D01*
X75000000Y-29900000D02*
X74000000Y-29900000D01*
X80000000Y-27900000D02*
X79000000Y-27900000D01*
X79000000Y-29600000D02*
X80000000Y-29600000D01*
X79000000Y-31600000D02*
X80000000Y-31600000D01*
X80000000Y-29900000D02*
X79000000Y-29900000D01*
X78750000Y-32400000D02*
X77750000Y-32400000D01*
X77750000Y-34100000D02*
X78750000Y-34100000D01*
X87250000Y-34100000D02*
X88250000Y-34100000D01*
X88250000Y-32400000D02*
X87250000Y-32400000D01*
X78750000Y-35150000D02*
X77750000Y-35150000D01*
X77750000Y-36850000D02*
X78750000Y-36850000D01*
X84000000Y-41650000D02*
X83000000Y-41650000D01*
X83000000Y-43350000D02*
X84000000Y-43350000D01*
X74300000Y-50750000D02*
X73300000Y-50750000D01*
X73300000Y-52450000D02*
X74300000Y-52450000D01*
X62000000Y-49350000D02*
X63000000Y-49350000D01*
X63000000Y-47650000D02*
X62000000Y-47650000D01*
X58000000Y-21100000D02*
X59000000Y-21100000D01*
X59000000Y-19400000D02*
X58000000Y-19400000D01*
X64500000Y-19400000D02*
X63500000Y-19400000D01*
X63500000Y-21100000D02*
X64500000Y-21100000D01*
X45206000Y-46120000D02*
X49706000Y-46120000D01*
X49706000Y-46120000D02*
X49706000Y-54020000D01*
X49706000Y-54020000D02*
X45206000Y-54020000D01*
X45206000Y-54020000D02*
X45206000Y-46120000D01*
X49706000Y-48570000D02*
X49206000Y-48570000D01*
X49206000Y-48570000D02*
X49206000Y-46620000D01*
X49206000Y-46620000D02*
X45706000Y-46620000D01*
X45706000Y-46620000D02*
X45706000Y-53520000D01*
X45706000Y-53520000D02*
X49206000Y-53520000D01*
X49206000Y-53520000D02*
X49206000Y-51570000D01*
X49206000Y-51570000D02*
X49706000Y-51570000D01*
X48506000Y-46120000D02*
X48506000Y-46620000D01*
X47206000Y-46120000D02*
X47206000Y-46620000D01*
X48506000Y-53520000D02*
X48506000Y-54020000D01*
X47206000Y-53520000D02*
X47206000Y-54020000D01*
X49706000Y-47770000D02*
X49906000Y-47770000D01*
X49906000Y-47770000D02*
X49906000Y-47470000D01*
X49906000Y-47470000D02*
X49706000Y-47470000D01*
X49806000Y-47770000D02*
X49806000Y-47470000D01*
X45706000Y-48970000D02*
X46206000Y-48970000D01*
X46206000Y-48970000D02*
X46206000Y-49170000D01*
X46206000Y-49170000D02*
X45706000Y-49170000D01*
X45706000Y-49070000D02*
X46206000Y-49070000D01*
X45706000Y-50970000D02*
X46206000Y-50970000D01*
X46206000Y-50970000D02*
X46206000Y-51170000D01*
X46206000Y-51170000D02*
X45706000Y-51170000D01*
X45706000Y-51070000D02*
X46206000Y-51070000D01*
X55150000Y-32625000D02*
X56350000Y-32625000D01*
X56350000Y-34375000D02*
X55150000Y-34375000D01*
X61900000Y-38625000D02*
X63100000Y-38625000D01*
X63100000Y-40375000D02*
X61900000Y-40375000D01*
X61900000Y-32625000D02*
X63100000Y-32625000D01*
X63100000Y-34375000D02*
X61900000Y-34375000D01*
X61900000Y-34625000D02*
X63100000Y-34625000D01*
X63100000Y-36375000D02*
X61900000Y-36375000D01*
X61900000Y-36625000D02*
X63100000Y-36625000D01*
X63100000Y-38375000D02*
X61900000Y-38375000D01*
X68100000Y-45375000D02*
X66900000Y-45375000D01*
X66900000Y-43625000D02*
X68100000Y-43625000D01*
X80600000Y-54675000D02*
X79400000Y-54675000D01*
X79400000Y-52925000D02*
X80600000Y-52925000D01*
X77900000Y-41625000D02*
X79100000Y-41625000D01*
X79100000Y-43375000D02*
X77900000Y-43375000D01*
X82400000Y-32375000D02*
X83600000Y-32375000D01*
X83600000Y-34125000D02*
X82400000Y-34125000D01*
X80600000Y-52375000D02*
X79400000Y-52375000D01*
X79400000Y-50625000D02*
X80600000Y-50625000D01*
X74400000Y-54675000D02*
X73200000Y-54675000D01*
X73200000Y-52925000D02*
X74400000Y-52925000D01*
X63100000Y-53375000D02*
X61900000Y-53375000D01*
X61900000Y-51625000D02*
X63100000Y-51625000D01*
X63100000Y-51375000D02*
X61900000Y-51375000D01*
X61900000Y-49625000D02*
X63100000Y-49625000D01*
X77275000Y-49775000D02*
X77275000Y-49725000D01*
X73125000Y-49775000D02*
X73125000Y-49630000D01*
X73125000Y-44625000D02*
X73125000Y-44770000D01*
X77275000Y-44625000D02*
X77275000Y-44770000D01*
X77275000Y-49775000D02*
X73125000Y-49775000D01*
X77275000Y-44625000D02*
X73125000Y-44625000D01*
X77275000Y-49725000D02*
X78675000Y-49725000D01*
X57900000Y-21375000D02*
X59100000Y-21375000D01*
X59100000Y-23125000D02*
X57900000Y-23125000D01*
X74300000Y-21100000D02*
X75300000Y-21100000D01*
X75300000Y-19400000D02*
X74300000Y-19400000D01*
X80800000Y-19400000D02*
X79800000Y-19400000D01*
X79800000Y-21100000D02*
X80800000Y-21100000D01*
X59345820Y-50726340D02*
X59345820Y-51427380D01*
X59345820Y-51427380D02*
X59096900Y-51427380D01*
X56546840Y-51427380D02*
X56346180Y-51427380D01*
X56346180Y-51427380D02*
X56346180Y-50726340D01*
X64600000Y-23125000D02*
X63400000Y-23125000D01*
X63400000Y-21375000D02*
X64600000Y-21375000D01*
X74200000Y-21375000D02*
X75400000Y-21375000D01*
X75400000Y-23125000D02*
X74200000Y-23125000D01*
X80900000Y-23125000D02*
X79700000Y-23125000D01*
X79700000Y-21375000D02*
X80900000Y-21375000D01*
X67550800Y-48999820D02*
X66849760Y-48999820D01*
X66849760Y-48999820D02*
X66849760Y-48750900D01*
X66849760Y-46200840D02*
X66849760Y-46000180D01*
X66849760Y-46000180D02*
X67550800Y-46000180D01*
X92270000Y-51230000D02*
X92270000Y-46150000D01*
X92270000Y-46150000D02*
X89730000Y-46150000D01*
X89730000Y-46150000D02*
X89730000Y-51230000D01*
X89450000Y-54050000D02*
X89450000Y-52500000D01*
X89730000Y-51230000D02*
X92270000Y-51230000D01*
X92550000Y-52500000D02*
X92550000Y-54050000D01*
X92550000Y-54050000D02*
X89450000Y-54050000D01*
X52324000Y-51054000D02*
X52324000Y-48514000D01*
X52044000Y-53874000D02*
X52044000Y-52324000D01*
X52324000Y-51054000D02*
X54864000Y-51054000D01*
X55144000Y-52324000D02*
X55144000Y-53874000D01*
X55144000Y-53874000D02*
X52044000Y-53874000D01*
X54864000Y-51054000D02*
X54864000Y-48514000D01*
X54864000Y-48514000D02*
X52324000Y-48514000D01*
X57300000Y-18300000D02*
X57300000Y-13800000D01*
X57300000Y-13800000D02*
X65200000Y-13800000D01*
X65200000Y-13800000D02*
X65200000Y-18300000D01*
X65200000Y-18300000D02*
X57300000Y-18300000D01*
X59750000Y-13800000D02*
X59750000Y-14300000D01*
X59750000Y-14300000D02*
X57800000Y-14300000D01*
X57800000Y-14300000D02*
X57800000Y-17800000D01*
X57800000Y-17800000D02*
X64700000Y-17800000D01*
X64700000Y-17800000D02*
X64700000Y-14300000D01*
X64700000Y-14300000D02*
X62750000Y-14300000D01*
X62750000Y-14300000D02*
X62750000Y-13800000D01*
X57300000Y-15000000D02*
X57800000Y-15000000D01*
X57300000Y-16300000D02*
X57800000Y-16300000D01*
X64700000Y-15000000D02*
X65200000Y-15000000D01*
X64700000Y-16300000D02*
X65200000Y-16300000D01*
X58950000Y-13800000D02*
X58950000Y-13600000D01*
X58950000Y-13600000D02*
X58650000Y-13600000D01*
X58650000Y-13600000D02*
X58650000Y-13800000D01*
X58950000Y-13700000D02*
X58650000Y-13700000D01*
X60150000Y-17800000D02*
X60150000Y-17300000D01*
X60150000Y-17300000D02*
X60350000Y-17300000D01*
X60350000Y-17300000D02*
X60350000Y-17800000D01*
X60250000Y-17800000D02*
X60250000Y-17300000D01*
X62150000Y-17800000D02*
X62150000Y-17300000D01*
X62150000Y-17300000D02*
X62350000Y-17300000D01*
X62350000Y-17300000D02*
X62350000Y-17800000D01*
X62250000Y-17800000D02*
X62250000Y-17300000D01*
X73550000Y-18300000D02*
X73550000Y-13800000D01*
X73550000Y-13800000D02*
X81450000Y-13800000D01*
X81450000Y-13800000D02*
X81450000Y-18300000D01*
X81450000Y-18300000D02*
X73550000Y-18300000D01*
X76000000Y-13800000D02*
X76000000Y-14300000D01*
X76000000Y-14300000D02*
X74050000Y-14300000D01*
X74050000Y-14300000D02*
X74050000Y-17800000D01*
X74050000Y-17800000D02*
X80950000Y-17800000D01*
X80950000Y-17800000D02*
X80950000Y-14300000D01*
X80950000Y-14300000D02*
X79000000Y-14300000D01*
X79000000Y-14300000D02*
X79000000Y-13800000D01*
X73550000Y-15000000D02*
X74050000Y-15000000D01*
X73550000Y-16300000D02*
X74050000Y-16300000D01*
X80950000Y-15000000D02*
X81450000Y-15000000D01*
X80950000Y-16300000D02*
X81450000Y-16300000D01*
X75200000Y-13800000D02*
X75200000Y-13600000D01*
X75200000Y-13600000D02*
X74900000Y-13600000D01*
X74900000Y-13600000D02*
X74900000Y-13800000D01*
X75200000Y-13700000D02*
X74900000Y-13700000D01*
X76400000Y-17800000D02*
X76400000Y-17300000D01*
X76400000Y-17300000D02*
X76600000Y-17300000D01*
X76600000Y-17300000D02*
X76600000Y-17800000D01*
X76500000Y-17800000D02*
X76500000Y-17300000D01*
X78400000Y-17800000D02*
X78400000Y-17300000D01*
X78400000Y-17300000D02*
X78600000Y-17300000D01*
X78600000Y-17300000D02*
X78600000Y-17800000D01*
X78500000Y-17800000D02*
X78500000Y-17300000D01*
X84500000Y-41250000D02*
X77500000Y-41250000D01*
X77500000Y-41250000D02*
X77500000Y-37250000D01*
X77500000Y-37250000D02*
X84500000Y-37250000D01*
X84500000Y-37250000D02*
X84500000Y-41250000D01*
X49020000Y-31904000D02*
X48020000Y-31904000D01*
X48020000Y-33604000D02*
X49020000Y-33604000D01*
X52650000Y-28250000D02*
X52650000Y-29250000D01*
X54350000Y-29250000D02*
X54350000Y-28250000D01*
X44944000Y-28024000D02*
X44944000Y-31072000D01*
X44944000Y-31072000D02*
X52056000Y-31072000D01*
X52056000Y-31072000D02*
X52056000Y-28024000D01*
X44944000Y-24976000D02*
X44944000Y-24214000D01*
X44944000Y-24214000D02*
X46468000Y-21928000D01*
X46468000Y-21928000D02*
X50532000Y-21928000D01*
X50532000Y-21928000D02*
X52056000Y-24214000D01*
X52056000Y-24214000D02*
X52056000Y-24976000D01*
X55880000Y-59690000D02*
X83820000Y-59690000D01*
X83820000Y-59690000D02*
X83820000Y-62230000D01*
X83820000Y-62230000D02*
X55880000Y-62230000D01*
X53060000Y-59410000D02*
X54610000Y-59410000D01*
X55880000Y-59690000D02*
X55880000Y-62230000D01*
X54610000Y-62510000D02*
X53060000Y-62510000D01*
X53060000Y-62510000D02*
X53060000Y-59410000D01*
X57166000Y-25917000D02*
X59166000Y-25917000D01*
X59166000Y-23867000D02*
X57166000Y-23867000D01*
X64310000Y-25917000D02*
X66310000Y-25917000D01*
X66310000Y-23867000D02*
X64310000Y-23867000D01*
X73930000Y-23867000D02*
X71930000Y-23867000D01*
X71930000Y-25917000D02*
X73930000Y-25917000D01*
X81000000Y-23867000D02*
X79000000Y-23867000D01*
X79000000Y-25917000D02*
X81000000Y-25917000D01*
X55106000Y-42813000D02*
X56306000Y-42813000D01*
X56306000Y-44563000D02*
X55106000Y-44563000D01*
X44981905Y-44902381D02*
X44981905Y-43902381D01*
X45362858Y-43902381D01*
X45458096Y-43950000D01*
X45505715Y-43997619D01*
X45553334Y-44092857D01*
X45553334Y-44235714D01*
X45505715Y-44330952D01*
X45458096Y-44378571D01*
X45362858Y-44426190D01*
X44981905Y-44426190D01*
X45886667Y-43902381D02*
X46553334Y-43902381D01*
X46124762Y-44902381D01*
X65738095Y-32952381D02*
X65738095Y-33761905D01*
X65785714Y-33857143D01*
X65833333Y-33904762D01*
X65928571Y-33952381D01*
X66119048Y-33952381D01*
X66214286Y-33904762D01*
X66261905Y-33857143D01*
X66309524Y-33761905D01*
X66309524Y-32952381D01*
X67309524Y-33952381D02*
X66738095Y-33952381D01*
X67023809Y-33952381D02*
X67023809Y-32952381D01*
X66928571Y-33095238D01*
X66833333Y-33190476D01*
X66738095Y-33238095D01*
X52333334Y-35857143D02*
X52285715Y-35904762D01*
X52142858Y-35952381D01*
X52047620Y-35952381D01*
X51904762Y-35904762D01*
X51809524Y-35809524D01*
X51761905Y-35714286D01*
X51714286Y-35523810D01*
X51714286Y-35380952D01*
X51761905Y-35190476D01*
X51809524Y-35095238D01*
X51904762Y-35000000D01*
X52047620Y-34952381D01*
X52142858Y-34952381D01*
X52285715Y-35000000D01*
X52333334Y-35047619D01*
X53285715Y-35952381D02*
X52714286Y-35952381D01*
X53000000Y-35952381D02*
X53000000Y-34952381D01*
X52904762Y-35095238D01*
X52809524Y-35190476D01*
X52714286Y-35238095D01*
X52333334Y-41857143D02*
X52285715Y-41904762D01*
X52142858Y-41952381D01*
X52047620Y-41952381D01*
X51904762Y-41904762D01*
X51809524Y-41809524D01*
X51761905Y-41714286D01*
X51714286Y-41523810D01*
X51714286Y-41380952D01*
X51761905Y-41190476D01*
X51809524Y-41095238D01*
X51904762Y-41000000D01*
X52047620Y-40952381D01*
X52142858Y-40952381D01*
X52285715Y-41000000D01*
X52333334Y-41047619D01*
X52714286Y-41047619D02*
X52761905Y-41000000D01*
X52857143Y-40952381D01*
X53095239Y-40952381D01*
X53190477Y-41000000D01*
X53238096Y-41047619D01*
X53285715Y-41142857D01*
X53285715Y-41238095D01*
X53238096Y-41380952D01*
X52666667Y-41952381D01*
X53285715Y-41952381D01*
X52333334Y-37857143D02*
X52285715Y-37904762D01*
X52142858Y-37952381D01*
X52047620Y-37952381D01*
X51904762Y-37904762D01*
X51809524Y-37809524D01*
X51761905Y-37714286D01*
X51714286Y-37523810D01*
X51714286Y-37380952D01*
X51761905Y-37190476D01*
X51809524Y-37095238D01*
X51904762Y-37000000D01*
X52047620Y-36952381D01*
X52142858Y-36952381D01*
X52285715Y-37000000D01*
X52333334Y-37047619D01*
X52666667Y-36952381D02*
X53285715Y-36952381D01*
X52952381Y-37333333D01*
X53095239Y-37333333D01*
X53190477Y-37380952D01*
X53238096Y-37428571D01*
X53285715Y-37523810D01*
X53285715Y-37761905D01*
X53238096Y-37857143D01*
X53190477Y-37904762D01*
X53095239Y-37952381D01*
X52809524Y-37952381D01*
X52714286Y-37904762D01*
X52666667Y-37857143D01*
X52333334Y-39857143D02*
X52285715Y-39904762D01*
X52142858Y-39952381D01*
X52047620Y-39952381D01*
X51904762Y-39904762D01*
X51809524Y-39809524D01*
X51761905Y-39714286D01*
X51714286Y-39523810D01*
X51714286Y-39380952D01*
X51761905Y-39190476D01*
X51809524Y-39095238D01*
X51904762Y-39000000D01*
X52047620Y-38952381D01*
X52142858Y-38952381D01*
X52285715Y-39000000D01*
X52333334Y-39047619D01*
X53190477Y-39285714D02*
X53190477Y-39952381D01*
X52952381Y-38904762D02*
X52714286Y-39619048D01*
X53333334Y-39619048D01*
X58833334Y-41857143D02*
X58785715Y-41904762D01*
X58642858Y-41952381D01*
X58547620Y-41952381D01*
X58404762Y-41904762D01*
X58309524Y-41809524D01*
X58261905Y-41714286D01*
X58214286Y-41523810D01*
X58214286Y-41380952D01*
X58261905Y-41190476D01*
X58309524Y-41095238D01*
X58404762Y-41000000D01*
X58547620Y-40952381D01*
X58642858Y-40952381D01*
X58785715Y-41000000D01*
X58833334Y-41047619D01*
X59738096Y-40952381D02*
X59261905Y-40952381D01*
X59214286Y-41428571D01*
X59261905Y-41380952D01*
X59357143Y-41333333D01*
X59595239Y-41333333D01*
X59690477Y-41380952D01*
X59738096Y-41428571D01*
X59785715Y-41523810D01*
X59785715Y-41761905D01*
X59738096Y-41857143D01*
X59690477Y-41904762D01*
X59595239Y-41952381D01*
X59357143Y-41952381D01*
X59261905Y-41904762D01*
X59214286Y-41857143D01*
X58833334Y-30107143D02*
X58785715Y-30154762D01*
X58642858Y-30202381D01*
X58547620Y-30202381D01*
X58404762Y-30154762D01*
X58309524Y-30059524D01*
X58261905Y-29964286D01*
X58214286Y-29773810D01*
X58214286Y-29630952D01*
X58261905Y-29440476D01*
X58309524Y-29345238D01*
X58404762Y-29250000D01*
X58547620Y-29202381D01*
X58642858Y-29202381D01*
X58785715Y-29250000D01*
X58833334Y-29297619D01*
X59690477Y-29202381D02*
X59500000Y-29202381D01*
X59404762Y-29250000D01*
X59357143Y-29297619D01*
X59261905Y-29440476D01*
X59214286Y-29630952D01*
X59214286Y-30011905D01*
X59261905Y-30107143D01*
X59309524Y-30154762D01*
X59404762Y-30202381D01*
X59595239Y-30202381D01*
X59690477Y-30154762D01*
X59738096Y-30107143D01*
X59785715Y-30011905D01*
X59785715Y-29773810D01*
X59738096Y-29678571D01*
X59690477Y-29630952D01*
X59595239Y-29583333D01*
X59404762Y-29583333D01*
X59309524Y-29630952D01*
X59261905Y-29678571D01*
X59214286Y-29773810D01*
X58833334Y-31857143D02*
X58785715Y-31904762D01*
X58642858Y-31952381D01*
X58547620Y-31952381D01*
X58404762Y-31904762D01*
X58309524Y-31809524D01*
X58261905Y-31714286D01*
X58214286Y-31523810D01*
X58214286Y-31380952D01*
X58261905Y-31190476D01*
X58309524Y-31095238D01*
X58404762Y-31000000D01*
X58547620Y-30952381D01*
X58642858Y-30952381D01*
X58785715Y-31000000D01*
X58833334Y-31047619D01*
X59166667Y-30952381D02*
X59833334Y-30952381D01*
X59404762Y-31952381D01*
X59083334Y-44357143D02*
X59035715Y-44404762D01*
X58892858Y-44452381D01*
X58797620Y-44452381D01*
X58654762Y-44404762D01*
X58559524Y-44309524D01*
X58511905Y-44214286D01*
X58464286Y-44023810D01*
X58464286Y-43880952D01*
X58511905Y-43690476D01*
X58559524Y-43595238D01*
X58654762Y-43500000D01*
X58797620Y-43452381D01*
X58892858Y-43452381D01*
X59035715Y-43500000D01*
X59083334Y-43547619D01*
X59654762Y-43880952D02*
X59559524Y-43833333D01*
X59511905Y-43785714D01*
X59464286Y-43690476D01*
X59464286Y-43642857D01*
X59511905Y-43547619D01*
X59559524Y-43500000D01*
X59654762Y-43452381D01*
X59845239Y-43452381D01*
X59940477Y-43500000D01*
X59988096Y-43547619D01*
X60035715Y-43642857D01*
X60035715Y-43690476D01*
X59988096Y-43785714D01*
X59940477Y-43833333D01*
X59845239Y-43880952D01*
X59654762Y-43880952D01*
X59559524Y-43928571D01*
X59511905Y-43976190D01*
X59464286Y-44071429D01*
X59464286Y-44261905D01*
X59511905Y-44357143D01*
X59559524Y-44404762D01*
X59654762Y-44452381D01*
X59845239Y-44452381D01*
X59940477Y-44404762D01*
X59988096Y-44357143D01*
X60035715Y-44261905D01*
X60035715Y-44071429D01*
X59988096Y-43976190D01*
X59940477Y-43928571D01*
X59845239Y-43880952D01*
X58507334Y-46585143D02*
X58459715Y-46632762D01*
X58316858Y-46680381D01*
X58221620Y-46680381D01*
X58078762Y-46632762D01*
X57983524Y-46537524D01*
X57935905Y-46442286D01*
X57888286Y-46251810D01*
X57888286Y-46108952D01*
X57935905Y-45918476D01*
X57983524Y-45823238D01*
X58078762Y-45728000D01*
X58221620Y-45680381D01*
X58316858Y-45680381D01*
X58459715Y-45728000D01*
X58507334Y-45775619D01*
X58983524Y-46680381D02*
X59174000Y-46680381D01*
X59269239Y-46632762D01*
X59316858Y-46585143D01*
X59412096Y-46442286D01*
X59459715Y-46251810D01*
X59459715Y-45870857D01*
X59412096Y-45775619D01*
X59364477Y-45728000D01*
X59269239Y-45680381D01*
X59078762Y-45680381D01*
X58983524Y-45728000D01*
X58935905Y-45775619D01*
X58888286Y-45870857D01*
X58888286Y-46108952D01*
X58935905Y-46204190D01*
X58983524Y-46251810D01*
X59078762Y-46299429D01*
X59269239Y-46299429D01*
X59364477Y-46251810D01*
X59412096Y-46204190D01*
X59459715Y-46108952D01*
X69857143Y-29107143D02*
X69809524Y-29154762D01*
X69666667Y-29202381D01*
X69571429Y-29202381D01*
X69428571Y-29154762D01*
X69333333Y-29059524D01*
X69285714Y-28964286D01*
X69238095Y-28773810D01*
X69238095Y-28630952D01*
X69285714Y-28440476D01*
X69333333Y-28345238D01*
X69428571Y-28250000D01*
X69571429Y-28202381D01*
X69666667Y-28202381D01*
X69809524Y-28250000D01*
X69857143Y-28297619D01*
X70809524Y-29202381D02*
X70238095Y-29202381D01*
X70523809Y-29202381D02*
X70523809Y-28202381D01*
X70428571Y-28345238D01*
X70333333Y-28440476D01*
X70238095Y-28488095D01*
X71428571Y-28202381D02*
X71523810Y-28202381D01*
X71619048Y-28250000D01*
X71666667Y-28297619D01*
X71714286Y-28392857D01*
X71761905Y-28583333D01*
X71761905Y-28821429D01*
X71714286Y-29011905D01*
X71666667Y-29107143D01*
X71619048Y-29154762D01*
X71523810Y-29202381D01*
X71428571Y-29202381D01*
X71333333Y-29154762D01*
X71285714Y-29107143D01*
X71238095Y-29011905D01*
X71190476Y-28821429D01*
X71190476Y-28583333D01*
X71238095Y-28392857D01*
X71285714Y-28297619D01*
X71333333Y-28250000D01*
X71428571Y-28202381D01*
X69857143Y-31107143D02*
X69809524Y-31154762D01*
X69666667Y-31202381D01*
X69571429Y-31202381D01*
X69428571Y-31154762D01*
X69333333Y-31059524D01*
X69285714Y-30964286D01*
X69238095Y-30773810D01*
X69238095Y-30630952D01*
X69285714Y-30440476D01*
X69333333Y-30345238D01*
X69428571Y-30250000D01*
X69571429Y-30202381D01*
X69666667Y-30202381D01*
X69809524Y-30250000D01*
X69857143Y-30297619D01*
X70809524Y-31202381D02*
X70238095Y-31202381D01*
X70523809Y-31202381D02*
X70523809Y-30202381D01*
X70428571Y-30345238D01*
X70333333Y-30440476D01*
X70238095Y-30488095D01*
X71761905Y-31202381D02*
X71190476Y-31202381D01*
X71476190Y-31202381D02*
X71476190Y-30202381D01*
X71380952Y-30345238D01*
X71285714Y-30440476D01*
X71190476Y-30488095D01*
X82857143Y-29107143D02*
X82809524Y-29154762D01*
X82666667Y-29202381D01*
X82571429Y-29202381D01*
X82428571Y-29154762D01*
X82333333Y-29059524D01*
X82285714Y-28964286D01*
X82238095Y-28773810D01*
X82238095Y-28630952D01*
X82285714Y-28440476D01*
X82333333Y-28345238D01*
X82428571Y-28250000D01*
X82571429Y-28202381D01*
X82666667Y-28202381D01*
X82809524Y-28250000D01*
X82857143Y-28297619D01*
X83809524Y-29202381D02*
X83238095Y-29202381D01*
X83523809Y-29202381D02*
X83523809Y-28202381D01*
X83428571Y-28345238D01*
X83333333Y-28440476D01*
X83238095Y-28488095D01*
X84190476Y-28297619D02*
X84238095Y-28250000D01*
X84333333Y-28202381D01*
X84571429Y-28202381D01*
X84666667Y-28250000D01*
X84714286Y-28297619D01*
X84761905Y-28392857D01*
X84761905Y-28488095D01*
X84714286Y-28630952D01*
X84142857Y-29202381D01*
X84761905Y-29202381D01*
X83431143Y-31091143D02*
X83383524Y-31138762D01*
X83240667Y-31186381D01*
X83145429Y-31186381D01*
X83002571Y-31138762D01*
X82907333Y-31043524D01*
X82859714Y-30948286D01*
X82812095Y-30757810D01*
X82812095Y-30614952D01*
X82859714Y-30424476D01*
X82907333Y-30329238D01*
X83002571Y-30234000D01*
X83145429Y-30186381D01*
X83240667Y-30186381D01*
X83383524Y-30234000D01*
X83431143Y-30281619D01*
X84383524Y-31186381D02*
X83812095Y-31186381D01*
X84097809Y-31186381D02*
X84097809Y-30186381D01*
X84002571Y-30329238D01*
X83907333Y-30424476D01*
X83812095Y-30472095D01*
X84716857Y-30186381D02*
X85335905Y-30186381D01*
X85002571Y-30567333D01*
X85145429Y-30567333D01*
X85240667Y-30614952D01*
X85288286Y-30662571D01*
X85335905Y-30757810D01*
X85335905Y-30995905D01*
X85288286Y-31091143D01*
X85240667Y-31138762D01*
X85145429Y-31186381D01*
X84859714Y-31186381D01*
X84764476Y-31138762D01*
X84716857Y-31091143D01*
X75607143Y-34142857D02*
X75654762Y-34190476D01*
X75702381Y-34333333D01*
X75702381Y-34428571D01*
X75654762Y-34571429D01*
X75559524Y-34666667D01*
X75464286Y-34714286D01*
X75273810Y-34761905D01*
X75130952Y-34761905D01*
X74940476Y-34714286D01*
X74845238Y-34666667D01*
X74750000Y-34571429D01*
X74702381Y-34428571D01*
X74702381Y-34333333D01*
X74750000Y-34190476D01*
X74797619Y-34142857D01*
X75702381Y-33190476D02*
X75702381Y-33761905D01*
X75702381Y-33476191D02*
X74702381Y-33476191D01*
X74845238Y-33571429D01*
X74940476Y-33666667D01*
X74988095Y-33761905D01*
X75035714Y-32333333D02*
X75702381Y-32333333D01*
X74654762Y-32571429D02*
X75369048Y-32809524D01*
X75369048Y-32190476D01*
X86857143Y-35357143D02*
X86809524Y-35404762D01*
X86666667Y-35452381D01*
X86571429Y-35452381D01*
X86428571Y-35404762D01*
X86333333Y-35309524D01*
X86285714Y-35214286D01*
X86238095Y-35023810D01*
X86238095Y-34880952D01*
X86285714Y-34690476D01*
X86333333Y-34595238D01*
X86428571Y-34500000D01*
X86571429Y-34452381D01*
X86666667Y-34452381D01*
X86809524Y-34500000D01*
X86857143Y-34547619D01*
X87809524Y-35452381D02*
X87238095Y-35452381D01*
X87523809Y-35452381D02*
X87523809Y-34452381D01*
X87428571Y-34595238D01*
X87333333Y-34690476D01*
X87238095Y-34738095D01*
X88714286Y-34452381D02*
X88238095Y-34452381D01*
X88190476Y-34928571D01*
X88238095Y-34880952D01*
X88333333Y-34833333D01*
X88571429Y-34833333D01*
X88666667Y-34880952D01*
X88714286Y-34928571D01*
X88761905Y-35023810D01*
X88761905Y-35261905D01*
X88714286Y-35357143D01*
X88666667Y-35404762D01*
X88571429Y-35452381D01*
X88333333Y-35452381D01*
X88238095Y-35404762D01*
X88190476Y-35357143D01*
X81357143Y-36857143D02*
X81309524Y-36904762D01*
X81166667Y-36952381D01*
X81071429Y-36952381D01*
X80928571Y-36904762D01*
X80833333Y-36809524D01*
X80785714Y-36714286D01*
X80738095Y-36523810D01*
X80738095Y-36380952D01*
X80785714Y-36190476D01*
X80833333Y-36095238D01*
X80928571Y-36000000D01*
X81071429Y-35952381D01*
X81166667Y-35952381D01*
X81309524Y-36000000D01*
X81357143Y-36047619D01*
X82309524Y-36952381D02*
X81738095Y-36952381D01*
X82023809Y-36952381D02*
X82023809Y-35952381D01*
X81928571Y-36095238D01*
X81833333Y-36190476D01*
X81738095Y-36238095D01*
X83166667Y-35952381D02*
X82976190Y-35952381D01*
X82880952Y-36000000D01*
X82833333Y-36047619D01*
X82738095Y-36190476D01*
X82690476Y-36380952D01*
X82690476Y-36761905D01*
X82738095Y-36857143D01*
X82785714Y-36904762D01*
X82880952Y-36952381D01*
X83071429Y-36952381D01*
X83166667Y-36904762D01*
X83214286Y-36857143D01*
X83261905Y-36761905D01*
X83261905Y-36523810D01*
X83214286Y-36428571D01*
X83166667Y-36380952D01*
X83071429Y-36333333D01*
X82880952Y-36333333D01*
X82785714Y-36380952D01*
X82738095Y-36428571D01*
X82690476Y-36523810D01*
X86733143Y-42775143D02*
X86685524Y-42822762D01*
X86542667Y-42870381D01*
X86447429Y-42870381D01*
X86304571Y-42822762D01*
X86209333Y-42727524D01*
X86161714Y-42632286D01*
X86114095Y-42441810D01*
X86114095Y-42298952D01*
X86161714Y-42108476D01*
X86209333Y-42013238D01*
X86304571Y-41918000D01*
X86447429Y-41870381D01*
X86542667Y-41870381D01*
X86685524Y-41918000D01*
X86733143Y-41965619D01*
X87685524Y-42870381D02*
X87114095Y-42870381D01*
X87399809Y-42870381D02*
X87399809Y-41870381D01*
X87304571Y-42013238D01*
X87209333Y-42108476D01*
X87114095Y-42156095D01*
X88018857Y-41870381D02*
X88685524Y-41870381D01*
X88256952Y-42870381D01*
X69357143Y-52107143D02*
X69309524Y-52154762D01*
X69166667Y-52202381D01*
X69071429Y-52202381D01*
X68928571Y-52154762D01*
X68833333Y-52059524D01*
X68785714Y-51964286D01*
X68738095Y-51773810D01*
X68738095Y-51630952D01*
X68785714Y-51440476D01*
X68833333Y-51345238D01*
X68928571Y-51250000D01*
X69071429Y-51202381D01*
X69166667Y-51202381D01*
X69309524Y-51250000D01*
X69357143Y-51297619D01*
X70309524Y-52202381D02*
X69738095Y-52202381D01*
X70023809Y-52202381D02*
X70023809Y-51202381D01*
X69928571Y-51345238D01*
X69833333Y-51440476D01*
X69738095Y-51488095D01*
X70880952Y-51630952D02*
X70785714Y-51583333D01*
X70738095Y-51535714D01*
X70690476Y-51440476D01*
X70690476Y-51392857D01*
X70738095Y-51297619D01*
X70785714Y-51250000D01*
X70880952Y-51202381D01*
X71071429Y-51202381D01*
X71166667Y-51250000D01*
X71214286Y-51297619D01*
X71261905Y-51392857D01*
X71261905Y-51440476D01*
X71214286Y-51535714D01*
X71166667Y-51583333D01*
X71071429Y-51630952D01*
X70880952Y-51630952D01*
X70785714Y-51678571D01*
X70738095Y-51726190D01*
X70690476Y-51821429D01*
X70690476Y-52011905D01*
X70738095Y-52107143D01*
X70785714Y-52154762D01*
X70880952Y-52202381D01*
X71071429Y-52202381D01*
X71166667Y-52154762D01*
X71214286Y-52107143D01*
X71261905Y-52011905D01*
X71261905Y-51821429D01*
X71214286Y-51726190D01*
X71166667Y-51678571D01*
X71071429Y-51630952D01*
X57523143Y-48871143D02*
X57475524Y-48918762D01*
X57332667Y-48966381D01*
X57237429Y-48966381D01*
X57094571Y-48918762D01*
X56999333Y-48823524D01*
X56951714Y-48728286D01*
X56904095Y-48537810D01*
X56904095Y-48394952D01*
X56951714Y-48204476D01*
X56999333Y-48109238D01*
X57094571Y-48014000D01*
X57237429Y-47966381D01*
X57332667Y-47966381D01*
X57475524Y-48014000D01*
X57523143Y-48061619D01*
X58475524Y-48966381D02*
X57904095Y-48966381D01*
X58189809Y-48966381D02*
X58189809Y-47966381D01*
X58094571Y-48109238D01*
X57999333Y-48204476D01*
X57904095Y-48252095D01*
X58951714Y-48966381D02*
X59142190Y-48966381D01*
X59237429Y-48918762D01*
X59285048Y-48871143D01*
X59380286Y-48728286D01*
X59427905Y-48537810D01*
X59427905Y-48156857D01*
X59380286Y-48061619D01*
X59332667Y-48014000D01*
X59237429Y-47966381D01*
X59046952Y-47966381D01*
X58951714Y-48014000D01*
X58904095Y-48061619D01*
X58856476Y-48156857D01*
X58856476Y-48394952D01*
X58904095Y-48490190D01*
X58951714Y-48537810D01*
X59046952Y-48585429D01*
X59237429Y-48585429D01*
X59332667Y-48537810D01*
X59380286Y-48490190D01*
X59427905Y-48394952D01*
X53857143Y-20607143D02*
X53809524Y-20654762D01*
X53666667Y-20702381D01*
X53571429Y-20702381D01*
X53428571Y-20654762D01*
X53333333Y-20559524D01*
X53285714Y-20464286D01*
X53238095Y-20273810D01*
X53238095Y-20130952D01*
X53285714Y-19940476D01*
X53333333Y-19845238D01*
X53428571Y-19750000D01*
X53571429Y-19702381D01*
X53666667Y-19702381D01*
X53809524Y-19750000D01*
X53857143Y-19797619D01*
X54238095Y-19797619D02*
X54285714Y-19750000D01*
X54380952Y-19702381D01*
X54619048Y-19702381D01*
X54714286Y-19750000D01*
X54761905Y-19797619D01*
X54809524Y-19892857D01*
X54809524Y-19988095D01*
X54761905Y-20130952D01*
X54190476Y-20702381D01*
X54809524Y-20702381D01*
X55666667Y-20035714D02*
X55666667Y-20702381D01*
X55428571Y-19654762D02*
X55190476Y-20369048D01*
X55809524Y-20369048D01*
X67357143Y-20607143D02*
X67309524Y-20654762D01*
X67166667Y-20702381D01*
X67071429Y-20702381D01*
X66928571Y-20654762D01*
X66833333Y-20559524D01*
X66785714Y-20464286D01*
X66738095Y-20273810D01*
X66738095Y-20130952D01*
X66785714Y-19940476D01*
X66833333Y-19845238D01*
X66928571Y-19750000D01*
X67071429Y-19702381D01*
X67166667Y-19702381D01*
X67309524Y-19750000D01*
X67357143Y-19797619D01*
X67738095Y-19797619D02*
X67785714Y-19750000D01*
X67880952Y-19702381D01*
X68119048Y-19702381D01*
X68214286Y-19750000D01*
X68261905Y-19797619D01*
X68309524Y-19892857D01*
X68309524Y-19988095D01*
X68261905Y-20130952D01*
X67690476Y-20702381D01*
X68309524Y-20702381D01*
X69214286Y-19702381D02*
X68738095Y-19702381D01*
X68690476Y-20178571D01*
X68738095Y-20130952D01*
X68833333Y-20083333D01*
X69071429Y-20083333D01*
X69166667Y-20130952D01*
X69214286Y-20178571D01*
X69261905Y-20273810D01*
X69261905Y-20511905D01*
X69214286Y-20607143D01*
X69166667Y-20654762D01*
X69071429Y-20702381D01*
X68833333Y-20702381D01*
X68738095Y-20654762D01*
X68690476Y-20607143D01*
X44981905Y-55316381D02*
X44981905Y-54316381D01*
X45362858Y-54316381D01*
X45458096Y-54364000D01*
X45505715Y-54411619D01*
X45553334Y-54506857D01*
X45553334Y-54649714D01*
X45505715Y-54744952D01*
X45458096Y-54792571D01*
X45362858Y-54840190D01*
X44981905Y-54840190D01*
X46505715Y-55316381D02*
X45934286Y-55316381D01*
X46220000Y-55316381D02*
X46220000Y-54316381D01*
X46124762Y-54459238D01*
X46029524Y-54554476D01*
X45934286Y-54602095D01*
X52333334Y-33952381D02*
X52000000Y-33476190D01*
X51761905Y-33952381D02*
X51761905Y-32952381D01*
X52142858Y-32952381D01*
X52238096Y-33000000D01*
X52285715Y-33047619D01*
X52333334Y-33142857D01*
X52333334Y-33285714D01*
X52285715Y-33380952D01*
X52238096Y-33428571D01*
X52142858Y-33476190D01*
X51761905Y-33476190D01*
X53285715Y-33952381D02*
X52714286Y-33952381D01*
X53000000Y-33952381D02*
X53000000Y-32952381D01*
X52904762Y-33095238D01*
X52809524Y-33190476D01*
X52714286Y-33238095D01*
X58833334Y-39952381D02*
X58500000Y-39476190D01*
X58261905Y-39952381D02*
X58261905Y-38952381D01*
X58642858Y-38952381D01*
X58738096Y-39000000D01*
X58785715Y-39047619D01*
X58833334Y-39142857D01*
X58833334Y-39285714D01*
X58785715Y-39380952D01*
X58738096Y-39428571D01*
X58642858Y-39476190D01*
X58261905Y-39476190D01*
X59166667Y-38952381D02*
X59785715Y-38952381D01*
X59452381Y-39333333D01*
X59595239Y-39333333D01*
X59690477Y-39380952D01*
X59738096Y-39428571D01*
X59785715Y-39523810D01*
X59785715Y-39761905D01*
X59738096Y-39857143D01*
X59690477Y-39904762D01*
X59595239Y-39952381D01*
X59309524Y-39952381D01*
X59214286Y-39904762D01*
X59166667Y-39857143D01*
X58833334Y-33952381D02*
X58500000Y-33476190D01*
X58261905Y-33952381D02*
X58261905Y-32952381D01*
X58642858Y-32952381D01*
X58738096Y-33000000D01*
X58785715Y-33047619D01*
X58833334Y-33142857D01*
X58833334Y-33285714D01*
X58785715Y-33380952D01*
X58738096Y-33428571D01*
X58642858Y-33476190D01*
X58261905Y-33476190D01*
X59690477Y-33285714D02*
X59690477Y-33952381D01*
X59452381Y-32904762D02*
X59214286Y-33619048D01*
X59833334Y-33619048D01*
X58833334Y-35952381D02*
X58500000Y-35476190D01*
X58261905Y-35952381D02*
X58261905Y-34952381D01*
X58642858Y-34952381D01*
X58738096Y-35000000D01*
X58785715Y-35047619D01*
X58833334Y-35142857D01*
X58833334Y-35285714D01*
X58785715Y-35380952D01*
X58738096Y-35428571D01*
X58642858Y-35476190D01*
X58261905Y-35476190D01*
X59738096Y-34952381D02*
X59261905Y-34952381D01*
X59214286Y-35428571D01*
X59261905Y-35380952D01*
X59357143Y-35333333D01*
X59595239Y-35333333D01*
X59690477Y-35380952D01*
X59738096Y-35428571D01*
X59785715Y-35523810D01*
X59785715Y-35761905D01*
X59738096Y-35857143D01*
X59690477Y-35904762D01*
X59595239Y-35952381D01*
X59357143Y-35952381D01*
X59261905Y-35904762D01*
X59214286Y-35857143D01*
X58833334Y-37952381D02*
X58500000Y-37476190D01*
X58261905Y-37952381D02*
X58261905Y-36952381D01*
X58642858Y-36952381D01*
X58738096Y-37000000D01*
X58785715Y-37047619D01*
X58833334Y-37142857D01*
X58833334Y-37285714D01*
X58785715Y-37380952D01*
X58738096Y-37428571D01*
X58642858Y-37476190D01*
X58261905Y-37476190D01*
X59690477Y-36952381D02*
X59500000Y-36952381D01*
X59404762Y-37000000D01*
X59357143Y-37047619D01*
X59261905Y-37190476D01*
X59214286Y-37380952D01*
X59214286Y-37761905D01*
X59261905Y-37857143D01*
X59309524Y-37904762D01*
X59404762Y-37952381D01*
X59595239Y-37952381D01*
X59690477Y-37904762D01*
X59738096Y-37857143D01*
X59785715Y-37761905D01*
X59785715Y-37523810D01*
X59738096Y-37428571D01*
X59690477Y-37380952D01*
X59595239Y-37333333D01*
X59404762Y-37333333D01*
X59309524Y-37380952D01*
X59261905Y-37428571D01*
X59214286Y-37523810D01*
X65833334Y-43452381D02*
X65500000Y-42976190D01*
X65261905Y-43452381D02*
X65261905Y-42452381D01*
X65642858Y-42452381D01*
X65738096Y-42500000D01*
X65785715Y-42547619D01*
X65833334Y-42642857D01*
X65833334Y-42785714D01*
X65785715Y-42880952D01*
X65738096Y-42928571D01*
X65642858Y-42976190D01*
X65261905Y-42976190D01*
X66166667Y-42452381D02*
X66833334Y-42452381D01*
X66404762Y-43452381D01*
X83333334Y-53952381D02*
X83000000Y-53476190D01*
X82761905Y-53952381D02*
X82761905Y-52952381D01*
X83142858Y-52952381D01*
X83238096Y-53000000D01*
X83285715Y-53047619D01*
X83333334Y-53142857D01*
X83333334Y-53285714D01*
X83285715Y-53380952D01*
X83238096Y-53428571D01*
X83142858Y-53476190D01*
X82761905Y-53476190D01*
X83904762Y-53380952D02*
X83809524Y-53333333D01*
X83761905Y-53285714D01*
X83714286Y-53190476D01*
X83714286Y-53142857D01*
X83761905Y-53047619D01*
X83809524Y-53000000D01*
X83904762Y-52952381D01*
X84095239Y-52952381D01*
X84190477Y-53000000D01*
X84238096Y-53047619D01*
X84285715Y-53142857D01*
X84285715Y-53190476D01*
X84238096Y-53285714D01*
X84190477Y-53333333D01*
X84095239Y-53380952D01*
X83904762Y-53380952D01*
X83809524Y-53428571D01*
X83761905Y-53476190D01*
X83714286Y-53571429D01*
X83714286Y-53761905D01*
X83761905Y-53857143D01*
X83809524Y-53904762D01*
X83904762Y-53952381D01*
X84095239Y-53952381D01*
X84190477Y-53904762D01*
X84238096Y-53857143D01*
X84285715Y-53761905D01*
X84285715Y-53571429D01*
X84238096Y-53476190D01*
X84190477Y-53428571D01*
X84095239Y-53380952D01*
X79833334Y-44702381D02*
X79500000Y-44226190D01*
X79261905Y-44702381D02*
X79261905Y-43702381D01*
X79642858Y-43702381D01*
X79738096Y-43750000D01*
X79785715Y-43797619D01*
X79833334Y-43892857D01*
X79833334Y-44035714D01*
X79785715Y-44130952D01*
X79738096Y-44178571D01*
X79642858Y-44226190D01*
X79261905Y-44226190D01*
X80309524Y-44702381D02*
X80500000Y-44702381D01*
X80595239Y-44654762D01*
X80642858Y-44607143D01*
X80738096Y-44464286D01*
X80785715Y-44273810D01*
X80785715Y-43892857D01*
X80738096Y-43797619D01*
X80690477Y-43750000D01*
X80595239Y-43702381D01*
X80404762Y-43702381D01*
X80309524Y-43750000D01*
X80261905Y-43797619D01*
X80214286Y-43892857D01*
X80214286Y-44130952D01*
X80261905Y-44226190D01*
X80309524Y-44273810D01*
X80404762Y-44321429D01*
X80595239Y-44321429D01*
X80690477Y-44273810D01*
X80738096Y-44226190D01*
X80785715Y-44130952D01*
X82357143Y-35452381D02*
X82023809Y-34976190D01*
X81785714Y-35452381D02*
X81785714Y-34452381D01*
X82166667Y-34452381D01*
X82261905Y-34500000D01*
X82309524Y-34547619D01*
X82357143Y-34642857D01*
X82357143Y-34785714D01*
X82309524Y-34880952D01*
X82261905Y-34928571D01*
X82166667Y-34976190D01*
X81785714Y-34976190D01*
X83309524Y-35452381D02*
X82738095Y-35452381D01*
X83023809Y-35452381D02*
X83023809Y-34452381D01*
X82928571Y-34595238D01*
X82833333Y-34690476D01*
X82738095Y-34738095D01*
X83928571Y-34452381D02*
X84023810Y-34452381D01*
X84119048Y-34500000D01*
X84166667Y-34547619D01*
X84214286Y-34642857D01*
X84261905Y-34833333D01*
X84261905Y-35071429D01*
X84214286Y-35261905D01*
X84166667Y-35357143D01*
X84119048Y-35404762D01*
X84023810Y-35452381D01*
X83928571Y-35452381D01*
X83833333Y-35404762D01*
X83785714Y-35357143D01*
X83738095Y-35261905D01*
X83690476Y-35071429D01*
X83690476Y-34833333D01*
X83738095Y-34642857D01*
X83785714Y-34547619D01*
X83833333Y-34500000D01*
X83928571Y-34452381D01*
X83357143Y-51952381D02*
X83023809Y-51476190D01*
X82785714Y-51952381D02*
X82785714Y-50952381D01*
X83166667Y-50952381D01*
X83261905Y-51000000D01*
X83309524Y-51047619D01*
X83357143Y-51142857D01*
X83357143Y-51285714D01*
X83309524Y-51380952D01*
X83261905Y-51428571D01*
X83166667Y-51476190D01*
X82785714Y-51476190D01*
X84309524Y-51952381D02*
X83738095Y-51952381D01*
X84023809Y-51952381D02*
X84023809Y-50952381D01*
X83928571Y-51095238D01*
X83833333Y-51190476D01*
X83738095Y-51238095D01*
X85261905Y-51952381D02*
X84690476Y-51952381D01*
X84976190Y-51952381D02*
X84976190Y-50952381D01*
X84880952Y-51095238D01*
X84785714Y-51190476D01*
X84690476Y-51238095D01*
X69357143Y-54202381D02*
X69023809Y-53726190D01*
X68785714Y-54202381D02*
X68785714Y-53202381D01*
X69166667Y-53202381D01*
X69261905Y-53250000D01*
X69309524Y-53297619D01*
X69357143Y-53392857D01*
X69357143Y-53535714D01*
X69309524Y-53630952D01*
X69261905Y-53678571D01*
X69166667Y-53726190D01*
X68785714Y-53726190D01*
X70309524Y-54202381D02*
X69738095Y-54202381D01*
X70023809Y-54202381D02*
X70023809Y-53202381D01*
X69928571Y-53345238D01*
X69833333Y-53440476D01*
X69738095Y-53488095D01*
X70690476Y-53297619D02*
X70738095Y-53250000D01*
X70833333Y-53202381D01*
X71071429Y-53202381D01*
X71166667Y-53250000D01*
X71214286Y-53297619D01*
X71261905Y-53392857D01*
X71261905Y-53488095D01*
X71214286Y-53630952D01*
X70642857Y-54202381D01*
X71261905Y-54202381D01*
X65857143Y-52952381D02*
X65523809Y-52476190D01*
X65285714Y-52952381D02*
X65285714Y-51952381D01*
X65666667Y-51952381D01*
X65761905Y-52000000D01*
X65809524Y-52047619D01*
X65857143Y-52142857D01*
X65857143Y-52285714D01*
X65809524Y-52380952D01*
X65761905Y-52428571D01*
X65666667Y-52476190D01*
X65285714Y-52476190D01*
X66809524Y-52952381D02*
X66238095Y-52952381D01*
X66523809Y-52952381D02*
X66523809Y-51952381D01*
X66428571Y-52095238D01*
X66333333Y-52190476D01*
X66238095Y-52238095D01*
X67142857Y-51952381D02*
X67761905Y-51952381D01*
X67428571Y-52333333D01*
X67571429Y-52333333D01*
X67666667Y-52380952D01*
X67714286Y-52428571D01*
X67761905Y-52523810D01*
X67761905Y-52761905D01*
X67714286Y-52857143D01*
X67666667Y-52904762D01*
X67571429Y-52952381D01*
X67285714Y-52952381D01*
X67190476Y-52904762D01*
X67142857Y-52857143D01*
X65857143Y-50952381D02*
X65523809Y-50476190D01*
X65285714Y-50952381D02*
X65285714Y-49952381D01*
X65666667Y-49952381D01*
X65761905Y-50000000D01*
X65809524Y-50047619D01*
X65857143Y-50142857D01*
X65857143Y-50285714D01*
X65809524Y-50380952D01*
X65761905Y-50428571D01*
X65666667Y-50476190D01*
X65285714Y-50476190D01*
X66809524Y-50952381D02*
X66238095Y-50952381D01*
X66523809Y-50952381D02*
X66523809Y-49952381D01*
X66428571Y-50095238D01*
X66333333Y-50190476D01*
X66238095Y-50238095D01*
X67666667Y-50285714D02*
X67666667Y-50952381D01*
X67428571Y-49904762D02*
X67190476Y-50619048D01*
X67809524Y-50619048D01*
X73988095Y-43302381D02*
X73988095Y-44111905D01*
X74035714Y-44207143D01*
X74083333Y-44254762D01*
X74178571Y-44302381D01*
X74369048Y-44302381D01*
X74464286Y-44254762D01*
X74511905Y-44207143D01*
X74559524Y-44111905D01*
X74559524Y-43302381D01*
X74988095Y-43397619D02*
X75035714Y-43350000D01*
X75130952Y-43302381D01*
X75369048Y-43302381D01*
X75464286Y-43350000D01*
X75511905Y-43397619D01*
X75559524Y-43492857D01*
X75559524Y-43588095D01*
X75511905Y-43730952D01*
X74940476Y-44302381D01*
X75559524Y-44302381D01*
X53857143Y-22702381D02*
X53523809Y-22226190D01*
X53285714Y-22702381D02*
X53285714Y-21702381D01*
X53666667Y-21702381D01*
X53761905Y-21750000D01*
X53809524Y-21797619D01*
X53857143Y-21892857D01*
X53857143Y-22035714D01*
X53809524Y-22130952D01*
X53761905Y-22178571D01*
X53666667Y-22226190D01*
X53285714Y-22226190D01*
X54809524Y-22702381D02*
X54238095Y-22702381D01*
X54523809Y-22702381D02*
X54523809Y-21702381D01*
X54428571Y-21845238D01*
X54333333Y-21940476D01*
X54238095Y-21988095D01*
X55714286Y-21702381D02*
X55238095Y-21702381D01*
X55190476Y-22178571D01*
X55238095Y-22130952D01*
X55333333Y-22083333D01*
X55571429Y-22083333D01*
X55666667Y-22130952D01*
X55714286Y-22178571D01*
X55761905Y-22273810D01*
X55761905Y-22511905D01*
X55714286Y-22607143D01*
X55666667Y-22654762D01*
X55571429Y-22702381D01*
X55333333Y-22702381D01*
X55238095Y-22654762D01*
X55190476Y-22607143D01*
X70157143Y-20607143D02*
X70109524Y-20654762D01*
X69966667Y-20702381D01*
X69871429Y-20702381D01*
X69728571Y-20654762D01*
X69633333Y-20559524D01*
X69585714Y-20464286D01*
X69538095Y-20273810D01*
X69538095Y-20130952D01*
X69585714Y-19940476D01*
X69633333Y-19845238D01*
X69728571Y-19750000D01*
X69871429Y-19702381D01*
X69966667Y-19702381D01*
X70109524Y-19750000D01*
X70157143Y-19797619D01*
X70538095Y-19797619D02*
X70585714Y-19750000D01*
X70680952Y-19702381D01*
X70919048Y-19702381D01*
X71014286Y-19750000D01*
X71061905Y-19797619D01*
X71109524Y-19892857D01*
X71109524Y-19988095D01*
X71061905Y-20130952D01*
X70490476Y-20702381D01*
X71109524Y-20702381D01*
X71966667Y-19702381D02*
X71776190Y-19702381D01*
X71680952Y-19750000D01*
X71633333Y-19797619D01*
X71538095Y-19940476D01*
X71490476Y-20130952D01*
X71490476Y-20511905D01*
X71538095Y-20607143D01*
X71585714Y-20654762D01*
X71680952Y-20702381D01*
X71871429Y-20702381D01*
X71966667Y-20654762D01*
X72014286Y-20607143D01*
X72061905Y-20511905D01*
X72061905Y-20273810D01*
X72014286Y-20178571D01*
X71966667Y-20130952D01*
X71871429Y-20083333D01*
X71680952Y-20083333D01*
X71585714Y-20130952D01*
X71538095Y-20178571D01*
X71490476Y-20273810D01*
X83407143Y-20607143D02*
X83359524Y-20654762D01*
X83216667Y-20702381D01*
X83121429Y-20702381D01*
X82978571Y-20654762D01*
X82883333Y-20559524D01*
X82835714Y-20464286D01*
X82788095Y-20273810D01*
X82788095Y-20130952D01*
X82835714Y-19940476D01*
X82883333Y-19845238D01*
X82978571Y-19750000D01*
X83121429Y-19702381D01*
X83216667Y-19702381D01*
X83359524Y-19750000D01*
X83407143Y-19797619D01*
X83788095Y-19797619D02*
X83835714Y-19750000D01*
X83930952Y-19702381D01*
X84169048Y-19702381D01*
X84264286Y-19750000D01*
X84311905Y-19797619D01*
X84359524Y-19892857D01*
X84359524Y-19988095D01*
X84311905Y-20130952D01*
X83740476Y-20702381D01*
X84359524Y-20702381D01*
X84692857Y-19702381D02*
X85359524Y-19702381D01*
X84930952Y-20702381D01*
X59750762Y-53824759D02*
X59655524Y-53777140D01*
X59560286Y-53681902D01*
X59417429Y-53539045D01*
X59322190Y-53491426D01*
X59226952Y-53491426D01*
X59274571Y-53729521D02*
X59179333Y-53681902D01*
X59084095Y-53586664D01*
X59036476Y-53396188D01*
X59036476Y-53062854D01*
X59084095Y-52872378D01*
X59179333Y-52777140D01*
X59274571Y-52729521D01*
X59465048Y-52729521D01*
X59560286Y-52777140D01*
X59655524Y-52872378D01*
X59703143Y-53062854D01*
X59703143Y-53396188D01*
X59655524Y-53586664D01*
X59560286Y-53681902D01*
X59465048Y-53729521D01*
X59274571Y-53729521D01*
X60084095Y-52824759D02*
X60131714Y-52777140D01*
X60226952Y-52729521D01*
X60465048Y-52729521D01*
X60560286Y-52777140D01*
X60607905Y-52824759D01*
X60655524Y-52919997D01*
X60655524Y-53015235D01*
X60607905Y-53158092D01*
X60036476Y-53729521D01*
X60655524Y-53729521D01*
X67357143Y-22702381D02*
X67023809Y-22226190D01*
X66785714Y-22702381D02*
X66785714Y-21702381D01*
X67166667Y-21702381D01*
X67261905Y-21750000D01*
X67309524Y-21797619D01*
X67357143Y-21892857D01*
X67357143Y-22035714D01*
X67309524Y-22130952D01*
X67261905Y-22178571D01*
X67166667Y-22226190D01*
X66785714Y-22226190D01*
X68309524Y-22702381D02*
X67738095Y-22702381D01*
X68023809Y-22702381D02*
X68023809Y-21702381D01*
X67928571Y-21845238D01*
X67833333Y-21940476D01*
X67738095Y-21988095D01*
X69166667Y-21702381D02*
X68976190Y-21702381D01*
X68880952Y-21750000D01*
X68833333Y-21797619D01*
X68738095Y-21940476D01*
X68690476Y-22130952D01*
X68690476Y-22511905D01*
X68738095Y-22607143D01*
X68785714Y-22654762D01*
X68880952Y-22702381D01*
X69071429Y-22702381D01*
X69166667Y-22654762D01*
X69214286Y-22607143D01*
X69261905Y-22511905D01*
X69261905Y-22273810D01*
X69214286Y-22178571D01*
X69166667Y-22130952D01*
X69071429Y-22083333D01*
X68880952Y-22083333D01*
X68785714Y-22130952D01*
X68738095Y-22178571D01*
X68690476Y-22273810D01*
X70157143Y-22702381D02*
X69823809Y-22226190D01*
X69585714Y-22702381D02*
X69585714Y-21702381D01*
X69966667Y-21702381D01*
X70061905Y-21750000D01*
X70109524Y-21797619D01*
X70157143Y-21892857D01*
X70157143Y-22035714D01*
X70109524Y-22130952D01*
X70061905Y-22178571D01*
X69966667Y-22226190D01*
X69585714Y-22226190D01*
X71109524Y-22702381D02*
X70538095Y-22702381D01*
X70823809Y-22702381D02*
X70823809Y-21702381D01*
X70728571Y-21845238D01*
X70633333Y-21940476D01*
X70538095Y-21988095D01*
X71442857Y-21702381D02*
X72109524Y-21702381D01*
X71680952Y-22702381D01*
X83407143Y-22702381D02*
X83073809Y-22226190D01*
X82835714Y-22702381D02*
X82835714Y-21702381D01*
X83216667Y-21702381D01*
X83311905Y-21750000D01*
X83359524Y-21797619D01*
X83407143Y-21892857D01*
X83407143Y-22035714D01*
X83359524Y-22130952D01*
X83311905Y-22178571D01*
X83216667Y-22226190D01*
X82835714Y-22226190D01*
X84359524Y-22702381D02*
X83788095Y-22702381D01*
X84073809Y-22702381D02*
X84073809Y-21702381D01*
X83978571Y-21845238D01*
X83883333Y-21940476D01*
X83788095Y-21988095D01*
X84930952Y-22130952D02*
X84835714Y-22083333D01*
X84788095Y-22035714D01*
X84740476Y-21940476D01*
X84740476Y-21892857D01*
X84788095Y-21797619D01*
X84835714Y-21750000D01*
X84930952Y-21702381D01*
X85121429Y-21702381D01*
X85216667Y-21750000D01*
X85264286Y-21797619D01*
X85311905Y-21892857D01*
X85311905Y-21940476D01*
X85264286Y-22035714D01*
X85216667Y-22083333D01*
X85121429Y-22130952D01*
X84930952Y-22130952D01*
X84835714Y-22178571D01*
X84788095Y-22226190D01*
X84740476Y-22321429D01*
X84740476Y-22511905D01*
X84788095Y-22607143D01*
X84835714Y-22654762D01*
X84930952Y-22702381D01*
X85121429Y-22702381D01*
X85216667Y-22654762D01*
X85264286Y-22607143D01*
X85311905Y-22511905D01*
X85311905Y-22321429D01*
X85264286Y-22226190D01*
X85216667Y-22178571D01*
X85121429Y-22130952D01*
X69404762Y-50547619D02*
X69309524Y-50500000D01*
X69214286Y-50404762D01*
X69071429Y-50261905D01*
X68976190Y-50214286D01*
X68880952Y-50214286D01*
X68928571Y-50452381D02*
X68833333Y-50404762D01*
X68738095Y-50309524D01*
X68690476Y-50119048D01*
X68690476Y-49785714D01*
X68738095Y-49595238D01*
X68833333Y-49500000D01*
X68928571Y-49452381D01*
X69119048Y-49452381D01*
X69214286Y-49500000D01*
X69309524Y-49595238D01*
X69357143Y-49785714D01*
X69357143Y-50119048D01*
X69309524Y-50309524D01*
X69214286Y-50404762D01*
X69119048Y-50452381D01*
X68928571Y-50452381D01*
X70309524Y-50452381D02*
X69738095Y-50452381D01*
X70023809Y-50452381D02*
X70023809Y-49452381D01*
X69928571Y-49595238D01*
X69833333Y-49690476D01*
X69738095Y-49738095D01*
X90261905Y-58052381D02*
X90261905Y-57052381D01*
X90642858Y-57052381D01*
X90738096Y-57100000D01*
X90785715Y-57147619D01*
X90833334Y-57242857D01*
X90833334Y-57385714D01*
X90785715Y-57480952D01*
X90738096Y-57528571D01*
X90642858Y-57576190D01*
X90261905Y-57576190D01*
X91214286Y-57147619D02*
X91261905Y-57100000D01*
X91357143Y-57052381D01*
X91595239Y-57052381D01*
X91690477Y-57100000D01*
X91738096Y-57147619D01*
X91785715Y-57242857D01*
X91785715Y-57338095D01*
X91738096Y-57480952D01*
X91166667Y-58052381D01*
X91785715Y-58052381D01*
X52855905Y-47526381D02*
X52855905Y-46526381D01*
X53236858Y-46526381D01*
X53332096Y-46574000D01*
X53379715Y-46621619D01*
X53427334Y-46716857D01*
X53427334Y-46859714D01*
X53379715Y-46954952D01*
X53332096Y-47002571D01*
X53236858Y-47050190D01*
X52855905Y-47050190D01*
X53760667Y-46526381D02*
X54379715Y-46526381D01*
X54046381Y-46907333D01*
X54189239Y-46907333D01*
X54284477Y-46954952D01*
X54332096Y-47002571D01*
X54379715Y-47097810D01*
X54379715Y-47335905D01*
X54332096Y-47431143D01*
X54284477Y-47478762D01*
X54189239Y-47526381D01*
X53903524Y-47526381D01*
X53808286Y-47478762D01*
X53760667Y-47431143D01*
X60511905Y-19702381D02*
X60511905Y-18702381D01*
X60892858Y-18702381D01*
X60988096Y-18750000D01*
X61035715Y-18797619D01*
X61083334Y-18892857D01*
X61083334Y-19035714D01*
X61035715Y-19130952D01*
X60988096Y-19178571D01*
X60892858Y-19226190D01*
X60511905Y-19226190D01*
X61988096Y-18702381D02*
X61511905Y-18702381D01*
X61464286Y-19178571D01*
X61511905Y-19130952D01*
X61607143Y-19083333D01*
X61845239Y-19083333D01*
X61940477Y-19130952D01*
X61988096Y-19178571D01*
X62035715Y-19273810D01*
X62035715Y-19511905D01*
X61988096Y-19607143D01*
X61940477Y-19654762D01*
X61845239Y-19702381D01*
X61607143Y-19702381D01*
X61511905Y-19654762D01*
X61464286Y-19607143D01*
X76761905Y-19702381D02*
X76761905Y-18702381D01*
X77142858Y-18702381D01*
X77238096Y-18750000D01*
X77285715Y-18797619D01*
X77333334Y-18892857D01*
X77333334Y-19035714D01*
X77285715Y-19130952D01*
X77238096Y-19178571D01*
X77142858Y-19226190D01*
X76761905Y-19226190D01*
X78190477Y-18702381D02*
X78000000Y-18702381D01*
X77904762Y-18750000D01*
X77857143Y-18797619D01*
X77761905Y-18940476D01*
X77714286Y-19130952D01*
X77714286Y-19511905D01*
X77761905Y-19607143D01*
X77809524Y-19654762D01*
X77904762Y-19702381D01*
X78095239Y-19702381D01*
X78190477Y-19654762D01*
X78238096Y-19607143D01*
X78285715Y-19511905D01*
X78285715Y-19273810D01*
X78238096Y-19178571D01*
X78190477Y-19130952D01*
X78095239Y-19083333D01*
X77904762Y-19083333D01*
X77809524Y-19130952D01*
X77761905Y-19178571D01*
X77714286Y-19273810D01*
X85023809Y-40726190D02*
X85023809Y-41202381D01*
X84690476Y-40202381D02*
X85023809Y-40726190D01*
X85357143Y-40202381D01*
X86214286Y-41202381D02*
X85642857Y-41202381D01*
X85928571Y-41202381D02*
X85928571Y-40202381D01*
X85833333Y-40345238D01*
X85738095Y-40440476D01*
X85642857Y-40488095D01*
X48877143Y-34861143D02*
X48829524Y-34908762D01*
X48686667Y-34956381D01*
X48591429Y-34956381D01*
X48448571Y-34908762D01*
X48353333Y-34813524D01*
X48305714Y-34718286D01*
X48258095Y-34527810D01*
X48258095Y-34384952D01*
X48305714Y-34194476D01*
X48353333Y-34099238D01*
X48448571Y-34004000D01*
X48591429Y-33956381D01*
X48686667Y-33956381D01*
X48829524Y-34004000D01*
X48877143Y-34051619D01*
X49258095Y-34051619D02*
X49305714Y-34004000D01*
X49400952Y-33956381D01*
X49639048Y-33956381D01*
X49734286Y-34004000D01*
X49781905Y-34051619D01*
X49829524Y-34146857D01*
X49829524Y-34242095D01*
X49781905Y-34384952D01*
X49210476Y-34956381D01*
X49829524Y-34956381D01*
X50400952Y-34384952D02*
X50305714Y-34337333D01*
X50258095Y-34289714D01*
X50210476Y-34194476D01*
X50210476Y-34146857D01*
X50258095Y-34051619D01*
X50305714Y-34004000D01*
X50400952Y-33956381D01*
X50591429Y-33956381D01*
X50686667Y-34004000D01*
X50734286Y-34051619D01*
X50781905Y-34146857D01*
X50781905Y-34194476D01*
X50734286Y-34289714D01*
X50686667Y-34337333D01*
X50591429Y-34384952D01*
X50400952Y-34384952D01*
X50305714Y-34432571D01*
X50258095Y-34480190D01*
X50210476Y-34575429D01*
X50210476Y-34765905D01*
X50258095Y-34861143D01*
X50305714Y-34908762D01*
X50400952Y-34956381D01*
X50591429Y-34956381D01*
X50686667Y-34908762D01*
X50734286Y-34861143D01*
X50781905Y-34765905D01*
X50781905Y-34575429D01*
X50734286Y-34480190D01*
X50686667Y-34432571D01*
X50591429Y-34384952D01*
X55607143Y-29392857D02*
X55654762Y-29440476D01*
X55702381Y-29583333D01*
X55702381Y-29678571D01*
X55654762Y-29821429D01*
X55559524Y-29916667D01*
X55464286Y-29964286D01*
X55273810Y-30011905D01*
X55130952Y-30011905D01*
X54940476Y-29964286D01*
X54845238Y-29916667D01*
X54750000Y-29821429D01*
X54702381Y-29678571D01*
X54702381Y-29583333D01*
X54750000Y-29440476D01*
X54797619Y-29392857D01*
X54797619Y-29011905D02*
X54750000Y-28964286D01*
X54702381Y-28869048D01*
X54702381Y-28630952D01*
X54750000Y-28535714D01*
X54797619Y-28488095D01*
X54892857Y-28440476D01*
X54988095Y-28440476D01*
X55130952Y-28488095D01*
X55702381Y-29059524D01*
X55702381Y-28440476D01*
X55702381Y-27964286D02*
X55702381Y-27773810D01*
X55654762Y-27678571D01*
X55607143Y-27630952D01*
X55464286Y-27535714D01*
X55273810Y-27488095D01*
X54892857Y-27488095D01*
X54797619Y-27535714D01*
X54750000Y-27583333D01*
X54702381Y-27678571D01*
X54702381Y-27869048D01*
X54750000Y-27964286D01*
X54797619Y-28011905D01*
X54892857Y-28059524D01*
X55130952Y-28059524D01*
X55226190Y-28011905D01*
X55273810Y-27964286D01*
X55321429Y-27869048D01*
X55321429Y-27678571D01*
X55273810Y-27583333D01*
X55226190Y-27535714D01*
X55130952Y-27488095D01*
X47738095Y-25190381D02*
X47738095Y-25999905D01*
X47785714Y-26095143D01*
X47833333Y-26142762D01*
X47928571Y-26190381D01*
X48119048Y-26190381D01*
X48214286Y-26142762D01*
X48261905Y-26095143D01*
X48309524Y-25999905D01*
X48309524Y-25190381D01*
X48690476Y-25190381D02*
X49309524Y-25190381D01*
X48976190Y-25571333D01*
X49119048Y-25571333D01*
X49214286Y-25618952D01*
X49261905Y-25666571D01*
X49309524Y-25761810D01*
X49309524Y-25999905D01*
X49261905Y-26095143D01*
X49214286Y-26142762D01*
X49119048Y-26190381D01*
X48833333Y-26190381D01*
X48738095Y-26142762D01*
X48690476Y-26095143D01*
X51121905Y-62162381D02*
X51121905Y-61162381D01*
X51502858Y-61162381D01*
X51598096Y-61210000D01*
X51645715Y-61257619D01*
X51693334Y-61352857D01*
X51693334Y-61495714D01*
X51645715Y-61590952D01*
X51598096Y-61638571D01*
X51502858Y-61686190D01*
X51121905Y-61686190D01*
X52550477Y-61495714D02*
X52550477Y-62162381D01*
X52312381Y-61114762D02*
X52074286Y-61829048D01*
X52693334Y-61829048D01*
X57523143Y-27549143D02*
X57475524Y-27596762D01*
X57332667Y-27644381D01*
X57237429Y-27644381D01*
X57094571Y-27596762D01*
X56999333Y-27501524D01*
X56951714Y-27406286D01*
X56904095Y-27215810D01*
X56904095Y-27072952D01*
X56951714Y-26882476D01*
X56999333Y-26787238D01*
X57094571Y-26692000D01*
X57237429Y-26644381D01*
X57332667Y-26644381D01*
X57475524Y-26692000D01*
X57523143Y-26739619D01*
X57904095Y-26739619D02*
X57951714Y-26692000D01*
X58046952Y-26644381D01*
X58285048Y-26644381D01*
X58380286Y-26692000D01*
X58427905Y-26739619D01*
X58475524Y-26834857D01*
X58475524Y-26930095D01*
X58427905Y-27072952D01*
X57856476Y-27644381D01*
X58475524Y-27644381D01*
X59094571Y-26644381D02*
X59189810Y-26644381D01*
X59285048Y-26692000D01*
X59332667Y-26739619D01*
X59380286Y-26834857D01*
X59427905Y-27025333D01*
X59427905Y-27263429D01*
X59380286Y-27453905D01*
X59332667Y-27549143D01*
X59285048Y-27596762D01*
X59189810Y-27644381D01*
X59094571Y-27644381D01*
X58999333Y-27596762D01*
X58951714Y-27549143D01*
X58904095Y-27453905D01*
X58856476Y-27263429D01*
X58856476Y-27025333D01*
X58904095Y-26834857D01*
X58951714Y-26739619D01*
X58999333Y-26692000D01*
X59094571Y-26644381D01*
X64667143Y-27549143D02*
X64619524Y-27596762D01*
X64476667Y-27644381D01*
X64381429Y-27644381D01*
X64238571Y-27596762D01*
X64143333Y-27501524D01*
X64095714Y-27406286D01*
X64048095Y-27215810D01*
X64048095Y-27072952D01*
X64095714Y-26882476D01*
X64143333Y-26787238D01*
X64238571Y-26692000D01*
X64381429Y-26644381D01*
X64476667Y-26644381D01*
X64619524Y-26692000D01*
X64667143Y-26739619D01*
X65048095Y-26739619D02*
X65095714Y-26692000D01*
X65190952Y-26644381D01*
X65429048Y-26644381D01*
X65524286Y-26692000D01*
X65571905Y-26739619D01*
X65619524Y-26834857D01*
X65619524Y-26930095D01*
X65571905Y-27072952D01*
X65000476Y-27644381D01*
X65619524Y-27644381D01*
X66571905Y-27644381D02*
X66000476Y-27644381D01*
X66286190Y-27644381D02*
X66286190Y-26644381D01*
X66190952Y-26787238D01*
X66095714Y-26882476D01*
X66000476Y-26930095D01*
X72255143Y-27281143D02*
X72207524Y-27328762D01*
X72064667Y-27376381D01*
X71969429Y-27376381D01*
X71826571Y-27328762D01*
X71731333Y-27233524D01*
X71683714Y-27138286D01*
X71636095Y-26947810D01*
X71636095Y-26804952D01*
X71683714Y-26614476D01*
X71731333Y-26519238D01*
X71826571Y-26424000D01*
X71969429Y-26376381D01*
X72064667Y-26376381D01*
X72207524Y-26424000D01*
X72255143Y-26471619D01*
X72636095Y-26471619D02*
X72683714Y-26424000D01*
X72778952Y-26376381D01*
X73017048Y-26376381D01*
X73112286Y-26424000D01*
X73159905Y-26471619D01*
X73207524Y-26566857D01*
X73207524Y-26662095D01*
X73159905Y-26804952D01*
X72588476Y-27376381D01*
X73207524Y-27376381D01*
X73588476Y-26471619D02*
X73636095Y-26424000D01*
X73731333Y-26376381D01*
X73969429Y-26376381D01*
X74064667Y-26424000D01*
X74112286Y-26471619D01*
X74159905Y-26566857D01*
X74159905Y-26662095D01*
X74112286Y-26804952D01*
X73540857Y-27376381D01*
X74159905Y-27376381D01*
X83939143Y-25249143D02*
X83891524Y-25296762D01*
X83748667Y-25344381D01*
X83653429Y-25344381D01*
X83510571Y-25296762D01*
X83415333Y-25201524D01*
X83367714Y-25106286D01*
X83320095Y-24915810D01*
X83320095Y-24772952D01*
X83367714Y-24582476D01*
X83415333Y-24487238D01*
X83510571Y-24392000D01*
X83653429Y-24344381D01*
X83748667Y-24344381D01*
X83891524Y-24392000D01*
X83939143Y-24439619D01*
X84320095Y-24439619D02*
X84367714Y-24392000D01*
X84462952Y-24344381D01*
X84701048Y-24344381D01*
X84796286Y-24392000D01*
X84843905Y-24439619D01*
X84891524Y-24534857D01*
X84891524Y-24630095D01*
X84843905Y-24772952D01*
X84272476Y-25344381D01*
X84891524Y-25344381D01*
X85224857Y-24344381D02*
X85843905Y-24344381D01*
X85510571Y-24725333D01*
X85653429Y-24725333D01*
X85748667Y-24772952D01*
X85796286Y-24820571D01*
X85843905Y-24915810D01*
X85843905Y-25153905D01*
X85796286Y-25249143D01*
X85748667Y-25296762D01*
X85653429Y-25344381D01*
X85367714Y-25344381D01*
X85272476Y-25296762D01*
X85224857Y-25249143D01*
X52237334Y-44140381D02*
X51904000Y-43664190D01*
X51665905Y-44140381D02*
X51665905Y-43140381D01*
X52046858Y-43140381D01*
X52142096Y-43188000D01*
X52189715Y-43235619D01*
X52237334Y-43330857D01*
X52237334Y-43473714D01*
X52189715Y-43568952D01*
X52142096Y-43616571D01*
X52046858Y-43664190D01*
X51665905Y-43664190D01*
X52618286Y-43235619D02*
X52665905Y-43188000D01*
X52761143Y-43140381D01*
X52999239Y-43140381D01*
X53094477Y-43188000D01*
X53142096Y-43235619D01*
X53189715Y-43330857D01*
X53189715Y-43426095D01*
X53142096Y-43568952D01*
X52570667Y-44140381D01*
X53189715Y-44140381D01*
M02*
