M48
;DRILL file {KiCad 4.0.4-stable} date 11/14/16 21:25:05
;FORMAT={3:3/ absolute / metric / suppress leading zeros}
FMAT,2
METRIC,TZ
T1C0.300
T2C0.500
T3C0.700
T4C1.016
T5C3.200
%
G90
G05
M71
T1
X46990Y-22352
X46990Y-23114
X46990Y-23876
X47752Y-22352
X47752Y-23114
X47752Y-23876
X48514Y-22352
X48514Y-23114
X48514Y-23876
X48514Y-31242
X49276Y-22352
X49276Y-23114
X49276Y-23876
X49784Y-34036
X50038Y-22352
X50038Y-23114
X50038Y-23876
X54864Y-27686
X54864Y-29972
X56388Y-51054
X57150Y-19050
X57150Y-31750
X57150Y-45212
X59944Y-44958
X59944Y-46228
X59944Y-48514
X59944Y-41656
X60198Y-54356
X61214Y-28194
X62484Y-35560
X62484Y-53848
X65278Y-19050
X65278Y-31496
X66040Y-34544
X66040Y-41656
X67056Y-33528
X67818Y-38862
X67818Y-32258
X68030Y-34956
X68072Y-37592
X68589Y-39077
X69346Y-39333
X69850Y-40132
X70104Y-51816
X70612Y-39116
X70845Y-41200
X70866Y-35052
X71765Y-44196
X71882Y-37592
X71882Y-55880
X72136Y-35306
X72644Y-50546
X72898Y-39916
X72898Y-36322
X72898Y-39116
X73152Y-18796
X73376Y-38475
X73406Y-35306
X73406Y-40640
X73660Y-37084
X73914Y-49022
X73936Y-33818
X74168Y-47244
X74930Y-41402
X75184Y-50546
X75692Y-27803
X76962Y-52070
X77000Y-30734
X77978Y-55372
X79248Y-49276
X80772Y-27432
X81026Y-35306
X81280Y-50292
X81534Y-55118
X81788Y-19050
X82042Y-43942
X82296Y-30734
X82550Y-55372
X83058Y-43942
X83994Y-43984
X84836Y-43942
X85344Y-52832
X86106Y-42926
X86360Y-49784
X89408Y-34544
T2
X46600Y-18000
X46600Y-58000
X47303Y-16303
X47303Y-19697
X47303Y-56303
X47303Y-59697
X49000Y-15600
X49000Y-20400
X49000Y-55600
X49000Y-60400
X50697Y-16303
X50697Y-19697
X50697Y-56303
X50697Y-59697
X51400Y-18000
X51400Y-58000
X85600Y-18000
X85600Y-58000
X86303Y-16303
X86303Y-19697
X86303Y-56303
X86303Y-59697
X88000Y-15600
X88000Y-20400
X88000Y-55600
X88000Y-60400
X89697Y-16303
X89697Y-19697
X89697Y-56303
X89697Y-59697
X90400Y-18000
X90400Y-58000
T3
X48006Y-39656
X48006Y-41656
X48006Y-48070
X48006Y-50070
X48006Y-52070
X59250Y-15500
X61250Y-15500
X63250Y-15500
X75500Y-15500
X77500Y-15500
X79500Y-15500
T4
X53594Y-49784
X53594Y-52324
X54610Y-60960
X57150Y-60960
X59690Y-60960
X62230Y-60960
X64770Y-60960
X67310Y-60960
X69850Y-60960
X72390Y-60960
X74930Y-60960
X77470Y-60960
X80010Y-60960
X82550Y-60960
X91000Y-47420
X91000Y-49960
X91000Y-52500
T5
X49000Y-18000
X49000Y-58000
X88000Y-18000
X88000Y-58000
T0
M30
